<svg width="65" height="75" viewBox="0 0 65 75" fill="none" xmlns="http://www.w3.org/2000/svg">
<path d="M59.1569 63.9101H54.7166V67.24H51.3862V69.4603H62.4871V67.24H59.1568L59.1569 63.9101Z" fill="#CBCBCB"/>
<path d="M35.8448 32.8272C35.8448 30.9913 34.3508 29.4969 32.5145 29.4969C30.6786 29.4969 29.1841 30.9908 29.1841 32.8272V33.9372H35.8447L35.8448 32.8272Z" fill="#CBCBCB"/>
<path d="M42.5064 30.2893L32.5159 24.1418L22.5254 30.2893V51.6999H42.5066L42.5064 30.2893ZM40.2866 47.2595C40.2866 48.4837 39.2909 49.4798 38.0662 49.4798L26.9658 49.4793C25.7416 49.4793 24.7455 48.4837 24.7455 47.259V36.1586C24.7455 34.9344 25.7412 33.9383 26.9658 33.9383V32.8283C26.9658 29.7678 29.4555 27.2781 32.516 27.2781C35.5765 27.2781 38.0662 29.7678 38.0662 32.8283V33.9383C39.2904 33.9383 40.2866 34.934 40.2866 36.1586V47.2595Z" fill="#CBCBCB"/>
<path d="M26.9653 36.1578V47.2587H38.0672L38.0658 36.1578H26.9653ZM35.8459 40.5981H33.6256V45.0384H31.4053V40.5981H29.1849V38.3778H35.8455L35.8459 40.5981Z" fill="#CBCBCB"/>
<path d="M32.5158 17.1021L15.2925 27.4358L16.436 29.3383L32.5152 19.6906L48.5943 29.3383L49.7379 27.4358L32.5158 17.1021Z" fill="#CBCBCB"/>
<path d="M35.8448 12.8466C35.8448 14.6858 34.3537 16.177 32.5145 16.177C30.6752 16.177 29.1841 14.6858 29.1841 12.8466C29.1841 11.0074 30.6752 9.51624 32.5145 9.51624C34.3537 9.51624 35.8448 11.0074 35.8448 12.8466Z" fill="#CBCBCB"/>
<path d="M37.7401 7.62145L37.0896 6.97094C35.885 5.76641 34.2177 5.07605 32.5148 5.07605C30.812 5.07605 29.1446 5.76641 27.9401 6.97094L27.2896 7.62145L28.8594 9.19127L29.5099 8.54075C30.3011 7.75006 31.3957 7.29638 32.5147 7.29638C33.6338 7.29638 34.7284 7.75054 35.5195 8.54075L36.17 9.19127L37.7401 7.62145Z" fill="#CBCBCB"/>
<path d="M25.7204 5.6709C27.5351 3.85528 29.9476 2.85622 32.515 2.85622C35.0815 2.85622 37.4949 3.85527 39.311 5.67237L39.5021 5.86201L41.0696 4.29023L40.88 4.10155C38.6446 1.86586 35.6753 0.635864 32.5151 0.635864C29.3548 0.635864 26.3854 1.86586 24.1515 4.10057L23.9604 4.2902L25.5279 5.86198L25.7204 5.6709Z" fill="#CBCBCB"/>
<path d="M49.166 49.4791H64.7068V58.3597H49.166V49.4791Z" fill="#CBCBCB"/>
<path d="M49.166 60.5795H64.7081V62.7999H49.166V60.5795Z" fill="#CBCBCB"/>
<path d="M14.7539 49.4791H1.4327C0.820109 49.4791 0.322754 49.9774 0.322754 50.589V51.699H15.8636V50.589C15.8631 49.9779 15.3657 49.4791 14.7532 49.4791H14.7539Z" fill="#CBCBCB"/>
<path d="M0.322754 66.1297C0.322754 66.7413 0.820123 67.2397 1.4327 67.2397H14.7539C15.3665 67.2397 15.8639 66.7413 15.8639 66.1297L15.8644 53.9189H0.323529L0.322754 66.1297ZM8.09342 57.2491C9.93263 57.2491 11.4238 58.7398 11.4238 60.5795C11.4238 62.4187 9.93312 63.9099 8.09342 63.9099C6.2542 63.9099 4.76305 62.4192 4.76305 60.5795C4.76305 58.7403 6.2542 57.2491 8.09342 57.2491Z" fill="#CBCBCB"/>
<path d="M6.40771 20.617H6.98381V16.9794C6.32322 16.5939 5.87387 15.8858 5.87387 15.0663C5.87387 13.8397 6.86715 12.846 8.0942 12.846C9.32081 12.846 10.3145 13.8393 10.3145 15.0663C10.3145 15.8853 9.86518 16.594 9.20458 16.9789L9.20362 20.617H9.77972L12.6261 17.0592C13.2833 16.2387 13.6439 15.2084 13.6439 14.1585C13.6439 11.5987 11.5618 9.51611 9.00056 9.51611H7.18678C4.62601 9.51611 2.54346 11.5987 2.54346 14.1585C2.54346 15.2084 2.904 16.2387 3.56122 17.0582L6.40771 20.617Z" fill="#CBCBCB"/>
<path d="M6.98291 23.9476C6.98291 24.5592 7.48028 25.0576 8.09285 25.0576C8.70543 25.0576 9.2028 24.5592 9.2028 23.9476V22.8377H6.98296L6.98291 23.9476Z" fill="#CBCBCB"/>
<path d="M53.4151 26.1672H56.0161C57.7511 26.1672 59.1564 24.762 59.1564 23.028C59.1564 22.1955 58.8256 21.3962 58.237 20.8076L56.9365 19.5066V18.3967H62.4867V16.1763H56.9365V13.956H62.4867V11.7357H56.9365V9.51621H62.4867V7.29638H56.9365C56.9365 6.68379 56.4391 6.18643 55.8265 6.18643H53.6062C52.9936 6.18643 52.4963 6.6838 52.4963 7.29638V19.5072L51.1952 20.8082C50.6071 21.3963 50.2759 22.1957 50.2759 23.0286C50.2759 24.7621 51.6811 26.1673 53.4151 26.1673L53.4151 26.1672Z" fill="#CBCBCB"/>
<path d="M22.8935 8.34301L22.1542 6.24939C19.4489 7.20427 16.9313 8.55809 14.627 10.2412C15.0566 10.8562 15.385 11.5432 15.5962 12.2816C17.8147 10.6076 20.2579 9.27202 22.8935 8.34301Z" fill="#CBCBCB"/>
<path d="M7.6001 47.2595C5.74982 43.4851 4.76379 39.2815 4.76379 35.0487V33.9694C4.76379 31.3818 5.13105 28.8431 5.84589 26.3889C5.18578 25.7797 4.76379 24.9146 4.76379 23.9477V22.7686C3.29278 26.3343 2.54346 30.1004 2.54346 33.9695L2.54394 35.0487C2.54394 39.2556 3.43641 43.441 5.1369 47.2595L7.6001 47.2595Z" fill="#CBCBCB"/>
<path d="M18.0835 58.7409V61.3185C22.4897 63.743 27.4384 65.0204 32.5145 65.0204C37.591 65.0204 42.5396 63.7429 46.9456 61.3185V58.7409C42.6052 61.3895 37.6334 62.8 32.5145 62.8C27.396 62.8 22.4237 61.3894 18.0835 58.7409Z" fill="#CBCBCB"/>
<path d="M57.4288 47.2595H59.8921C61.594 43.441 62.4864 39.2556 62.4864 35.0487V33.9694C62.4864 30.848 61.9934 27.7951 61.0332 24.8589C60.7 25.7668 60.1316 26.5498 59.398 27.1513C59.9732 29.3683 60.266 31.6487 60.266 33.9694V35.0487C60.266 39.2825 59.2795 43.4861 57.4288 47.2595Z" fill="#CBCBCB"/>
<path d="M50.276 10.127C48.0158 8.49528 45.5429 7.19081 42.8751 6.24939L42.1357 8.34301C45.1229 9.39775 47.8506 10.9393 50.276 12.9254L50.276 10.127Z" fill="#CBCBCB"/>
</svg>
