<svg width="70" height="77" viewBox="0 0 70 77" fill="none" xmlns="http://www.w3.org/2000/svg">
<path d="M68.9337 20.767L35.0155 0.882812L1.08746 20.7879C1.01208 20.8311 0.947754 20.9276 0.947754 21.0245V26.0572H69.073V21.0245C69.073 20.917 69.0193 20.8311 68.9333 20.7667L68.9337 20.767ZM35.1556 20.5519C32.1878 20.5519 29.7787 18.1322 29.7787 15.175C29.7787 12.2177 32.1878 9.79805 35.1556 9.79805C38.1234 9.79805 40.5325 12.2072 40.5325 15.175C40.5325 18.1428 38.1129 20.5519 35.1556 20.5519Z" fill="#CBCBCB"/>
<path d="M69.2987 62.2018V69.5039C69.2987 69.622 69.2017 69.7084 69.0942 69.7084L0.936941 69.7079C0.81884 69.7079 0.732422 69.6109 0.732422 69.5034V62.2013C0.732422 62.0832 0.829397 61.9968 0.936941 61.9968H69.0843C69.2029 61.9973 69.2994 62.0832 69.2994 62.2018H69.2987Z" fill="#CBCBCB"/>
<path d="M19.4547 56.7597V59.7708H7.28125V56.7597C7.28125 56.4803 7.49633 56.2542 7.77573 56.2542H18.9703C19.2396 56.2546 19.4547 56.4908 19.4547 56.7597Z" fill="#CBCBCB"/>
<path d="M8.87309 31.7999H8.64697C8.67914 31.7893 8.72235 31.7893 8.76507 31.7893C8.78668 31.7893 8.84044 31.7893 8.87309 31.7999Z" fill="#CBCBCB"/>
<path d="M19.455 28.2837V31.3053C19.455 31.5742 19.2399 31.7998 18.9605 31.7998H18.1002C18.068 31.7893 18.0248 31.7893 17.9821 31.7893C17.9499 31.7893 17.9067 31.7893 17.864 31.7998L8.87351 31.8003C8.84135 31.7897 8.79814 31.7897 8.75541 31.7897C8.72325 31.7897 8.68004 31.7897 8.63731 31.8003H7.76548C7.48607 31.8003 7.271 31.5747 7.271 31.3058V28.2842L19.455 28.2837Z" fill="#CBCBCB"/>
<path d="M9.87354 34.0269H16.8741V54.029H9.87354V34.0269Z" fill="#CBCBCB"/>
<path d="M18.0992 31.7999H17.8735C17.9057 31.7893 17.9489 31.7893 17.9916 31.7893C18.0132 31.7893 18.067 31.7893 18.0992 31.7999Z" fill="#CBCBCB"/>
<path d="M62.7492 56.7597V59.7708H50.5757V56.7597C50.5757 56.4803 50.7908 56.2542 51.0702 56.2542H62.2647C62.5341 56.2546 62.7492 56.4908 62.7492 56.7597Z" fill="#CBCBCB"/>
<path d="M52.1675 31.7999H51.9419C51.9741 31.7893 52.0173 31.7893 52.06 31.7893C52.0922 31.7893 52.1354 31.7893 52.1675 31.7999Z" fill="#CBCBCB"/>
<path d="M62.7492 28.2837V31.3053C62.7492 31.5742 62.5341 31.7998 62.2547 31.7998H61.3944C61.3623 31.7893 61.3191 31.7893 61.2763 31.7893C61.2442 31.7893 61.201 31.7893 61.1582 31.7998H52.1572C52.125 31.7893 52.0818 31.7893 52.0391 31.7893C52.0069 31.7893 51.9637 31.7893 51.921 31.7998H51.0501C50.7707 31.7998 50.5557 31.5742 50.5557 31.3053V28.2837H62.7492Z" fill="#CBCBCB"/>
<path d="M53.168 34.0269H60.1685V54.029H53.168V34.0269Z" fill="#CBCBCB"/>
<path d="M61.3951 31.7999H61.1694C61.2016 31.7893 61.2448 31.7893 61.2875 31.7893C61.3197 31.7893 61.3629 31.7893 61.3951 31.7999Z" fill="#CBCBCB"/>
</svg>
