<svg width="65" height="77" viewBox="0 0 65 77" fill="none" xmlns="http://www.w3.org/2000/svg">
<path d="M59.1569 63.8962H54.7166V67.2261H51.3862V69.4464H62.4871V67.2261H59.1568L59.1569 63.8962Z" fill="#CBCBCB"/>
<path d="M35.8448 32.8133C35.8448 30.9774 34.3508 29.4829 32.5145 29.4829C30.6786 29.4829 29.1841 30.9769 29.1841 32.8133V33.9233H35.8447L35.8448 32.8133Z" fill="#CBCBCB"/>
<path d="M42.5064 30.2754L32.5159 24.1279L22.5254 30.2754V51.686H42.5066L42.5064 30.2754ZM40.2866 47.2456C40.2866 48.4698 39.2909 49.4659 38.0662 49.4659L26.9658 49.4654C25.7416 49.4654 24.7455 48.4697 24.7455 47.2451V36.1447C24.7455 34.9205 25.7412 33.9243 26.9658 33.9243V32.8144C26.9658 29.7539 29.4555 27.2642 32.516 27.2642C35.5765 27.2642 38.0662 29.7539 38.0662 32.8144V33.9243C39.2904 33.9243 40.2866 34.92 40.2866 36.1447V47.2456Z" fill="#CBCBCB"/>
<path d="M26.9653 36.1439V47.2448H38.0672L38.0658 36.1439H26.9653ZM35.8459 40.5842H33.6256V45.0245H31.4053V40.5842H29.1849V38.3639H35.8455L35.8459 40.5842Z" fill="#CBCBCB"/>
<path d="M32.5158 17.0881L15.2925 27.4219L16.436 29.3244L32.5152 19.6767L48.5943 29.3244L49.7379 27.4219L32.5158 17.0881Z" fill="#CBCBCB"/>
<path d="M35.8448 12.8327C35.8448 14.6719 34.3537 16.163 32.5145 16.163C30.6752 16.163 29.1841 14.6719 29.1841 12.8327C29.1841 10.9935 30.6752 9.5023 32.5145 9.5023C34.3537 9.5023 35.8448 10.9935 35.8448 12.8327Z" fill="#CBCBCB"/>
<path d="M37.7401 7.60753L37.0896 6.95701C35.885 5.75249 34.2177 5.06213 32.5148 5.06213C30.812 5.06213 29.1446 5.75249 27.9401 6.95701L27.2896 7.60753L28.8594 9.17734L29.5099 8.52683C30.3011 7.73613 31.3957 7.28246 32.5147 7.28246C33.6338 7.28246 34.7284 7.73661 35.5195 8.52683L36.17 9.17734L37.7401 7.60753Z" fill="#CBCBCB"/>
<path d="M25.7204 5.65697C27.5351 3.84135 29.9476 2.84229 32.515 2.84229C35.0815 2.84229 37.4949 3.84134 39.311 5.65844L39.5021 5.84808L41.0696 4.2763L40.88 4.08762C38.6446 1.85193 35.6753 0.621933 32.5151 0.621933C29.3548 0.621933 26.3854 1.85193 24.1515 4.08664L23.9604 4.27627L25.5279 5.84805L25.7204 5.65697Z" fill="#CBCBCB"/>
<path d="M49.166 49.4652H64.7068V58.3458H49.166V49.4652Z" fill="#CBCBCB"/>
<path d="M49.166 60.5656H64.7081V62.7859H49.166V60.5656Z" fill="#CBCBCB"/>
<path d="M14.7539 49.4652H1.4327C0.820109 49.4652 0.322754 49.9635 0.322754 50.5751V51.6851H15.8636V50.5751C15.8631 49.964 15.3657 49.4652 14.7532 49.4652H14.7539Z" fill="#CBCBCB"/>
<path d="M0.322754 66.1158C0.322754 66.7274 0.820123 67.2257 1.4327 67.2257H14.7539C15.3665 67.2257 15.8639 66.7274 15.8639 66.1158L15.8644 53.905H0.323529L0.322754 66.1158ZM8.09342 57.2352C9.93263 57.2352 11.4238 58.7259 11.4238 60.5656C11.4238 62.4048 9.93312 63.896 8.09342 63.896C6.2542 63.896 4.76305 62.4053 4.76305 60.5656C4.76305 58.7264 6.2542 57.2352 8.09342 57.2352Z" fill="#CBCBCB"/>
<path d="M6.40771 20.6031H6.98381V16.9655C6.32322 16.58 5.87387 15.8718 5.87387 15.0524C5.87387 13.8258 6.86715 12.8321 8.0942 12.8321C9.32081 12.8321 10.3145 13.8253 10.3145 15.0524C10.3145 15.8714 9.86518 16.58 9.20458 16.965L9.20362 20.6031H9.77972L12.6261 17.0452C13.2833 16.2248 13.6439 15.1945 13.6439 14.1445C13.6439 11.5847 11.5618 9.50217 9.00056 9.50217H7.18678C4.62601 9.50217 2.54346 11.5847 2.54346 14.1445C2.54346 15.1945 2.904 16.2247 3.56122 17.0442L6.40771 20.6031Z" fill="#CBCBCB"/>
<path d="M6.98291 23.9337C6.98291 24.5453 7.48028 25.0436 8.09285 25.0436C8.70543 25.0436 9.2028 24.5453 9.2028 23.9337V22.8238H6.98296L6.98291 23.9337Z" fill="#CBCBCB"/>
<path d="M53.4151 26.1533H56.0161C57.7511 26.1533 59.1564 24.748 59.1564 23.014C59.1564 22.1816 58.8256 21.3823 58.237 20.7937L56.9365 19.4927V18.3827H62.4867V16.1624H56.9365V13.9421H62.4867V11.7217H56.9365V9.50227H62.4867V7.28243H56.9365C56.9365 6.66984 56.4391 6.17249 55.8265 6.17249H53.6062C52.9936 6.17249 52.4963 6.66985 52.4963 7.28243V19.4933L51.1952 20.7943C50.6071 21.3824 50.2759 22.1817 50.2759 23.0146C50.2759 24.7481 51.6811 26.1534 53.4151 26.1534L53.4151 26.1533Z" fill="#CBCBCB"/>
<path d="M22.8935 8.32908L22.1542 6.23546C19.4489 7.19034 16.9313 8.54415 14.627 10.2273C15.0566 10.8423 15.385 11.5293 15.5962 12.2677C17.8147 10.5937 20.2579 9.25809 22.8935 8.32908Z" fill="#CBCBCB"/>
<path d="M7.6001 47.2456C5.74982 43.4712 4.76379 39.2676 4.76379 35.0347V33.9555C4.76379 31.3678 5.13105 28.8292 5.84589 26.375C5.18578 25.7658 4.76379 24.9007 4.76379 23.9338V22.7547C3.29278 26.3203 2.54346 30.0865 2.54346 33.9555L2.54394 35.0348C2.54394 39.2417 3.43641 43.4271 5.1369 47.2456L7.6001 47.2456Z" fill="#CBCBCB"/>
<path d="M18.0835 58.727V61.3046C22.4897 63.7291 27.4384 65.0065 32.5145 65.0065C37.591 65.0065 42.5396 63.7289 46.9456 61.3046V58.727C42.6052 61.3756 37.6334 62.786 32.5145 62.786C27.396 62.786 22.4237 61.3755 18.0835 58.727Z" fill="#CBCBCB"/>
<path d="M57.4288 47.2456H59.8921C61.594 43.427 62.4864 39.2416 62.4864 35.0347V33.9555C62.4864 30.8341 61.9934 27.7812 61.0332 24.845C60.7 25.7528 60.1316 26.5359 59.398 27.1373C59.9732 29.3544 60.266 31.6348 60.266 33.9555V35.0347C60.266 39.2686 59.2795 43.4721 57.4288 47.2456Z" fill="#CBCBCB"/>
<path d="M50.276 10.1131C48.0158 8.48135 45.5429 7.17688 42.8751 6.23546L42.1357 8.32908C45.1229 9.38381 47.8506 10.9254 50.276 12.9114L50.276 10.1131Z" fill="#CBCBCB"/>
</svg>
