<svg width="68" height="72" viewBox="0 0 68 72" fill="none" xmlns="http://www.w3.org/2000/svg">
<path d="M53.3478 1.10096C53.3478 0.706333 53.0103 0.385635 52.595 0.385635H17.3273C16.9068 0.385635 16.5649 0.710168 16.5649 1.11055V6.39481H53.348L53.3478 1.10096ZM42.2099 5.04104C41.3044 5.04104 40.5708 4.31708 40.5708 3.42366C40.5708 2.53025 41.3044 1.80629 42.2099 1.80629C43.1143 1.80629 43.8489 2.53025 43.8489 3.42366C43.8489 4.31708 43.1153 5.04104 42.2099 5.04104ZM46.3923 5.04104C45.4878 5.04104 44.7533 4.31708 44.7533 3.42366C44.7533 2.53025 45.4869 1.80629 46.3923 1.80629C47.2977 1.80629 48.0313 2.53025 48.0313 3.42366C48.0308 4.31709 47.2963 5.04104 46.3923 5.04104ZM50.5734 5.04104C49.6689 5.04104 48.9344 4.31708 48.9344 3.42366C48.9344 2.53025 49.668 1.80629 50.5734 1.80629C51.4788 1.80629 52.2124 2.53025 52.2124 3.42366C52.2119 4.31709 51.4788 5.04104 50.5734 5.04104Z" fill="#CBCBCB"/>
<path d="M67.0129 40.1134H52.8117C52.3484 40.1134 51.972 40.4879 51.972 40.9478V46.3507H46.1725V29.7898H52.5936C53.0089 29.7898 53.3464 29.4681 53.3464 29.0735V8.06232H16.5633V29.0735C16.5633 29.4681 16.8999 29.7898 17.3152 29.7898H23.536L23.537 46.3507H17.0588V40.9478C17.0588 40.4874 16.6824 40.1134 16.2191 40.1134H2.01788C1.55461 40.1134 1.17822 40.4879 1.17822 40.9483V54.9627C1.17822 55.4231 1.55461 55.7971 2.01788 55.7971H16.2179C16.6811 55.7971 17.0575 55.4241 17.0575 54.9627V48.5762H24.6563C24.951 48.5762 25.24 48.4581 25.4489 48.2502C25.6606 48.0404 25.7768 47.76 25.7768 47.4643L25.7758 29.7911H33.8422C33.8412 29.8074 33.8326 29.8199 33.8326 29.8363V48.8318C33.8326 48.9715 33.8647 49.1016 33.9132 49.2255H28.0956C27.6323 49.2255 27.2559 49.5985 27.2559 50.0599V64.0755C27.2559 64.5359 27.6323 64.9099 28.0956 64.9099H42.2956C42.7588 64.9099 43.1352 64.5354 43.1352 64.0755L43.1357 50.0599C43.1357 49.5995 42.7593 49.2255 42.296 49.2255H35.9945C36.0421 49.1031 36.0752 48.9715 36.0752 48.8318L36.0747 29.8363C36.0747 29.8199 36.0661 29.806 36.0651 29.7911H43.9303V47.4643C43.9303 47.761 44.0465 48.0409 44.2582 48.2502C44.467 48.4576 44.7551 48.5762 45.0508 48.5762H51.9698V54.9627C51.9698 55.4231 52.3461 55.7971 52.8094 55.7971H67.0094C67.4727 55.7971 67.8491 55.4241 67.8491 54.9627L67.85 40.9495C67.851 40.4891 67.4746 40.1147 67.0113 40.1147L67.0129 40.1134ZM8.35835 51.0848L5.29541 52.8419L5.15906 52.8967L4.8398 51.973L6.90994 50.6845L4.8398 49.396L5.16577 48.4507L8.35739 50.2832V51.0849L8.35835 51.0848ZM8.35835 45.6263L5.29541 47.3834L5.15906 47.4372L4.8398 46.5135L6.90994 45.225L4.8398 43.9388L5.16577 42.9936L8.35739 44.826V45.6263L8.35835 45.6263ZM10.9402 51.1966H8.84663V50.1654H10.9402V51.1966ZM10.9402 45.7381H8.84663V44.7069H10.9402V45.7381ZM13.3709 51.1966H11.2782V50.1654H13.3709V51.1966ZM13.3709 45.7381H11.2782V44.7069H13.3709V45.7381ZM34.4361 60.1962L31.3732 61.9533L31.2368 62.008L30.9176 61.0844L32.9877 59.7959L30.9176 58.5074L31.2435 57.5621L34.4351 59.3946V60.1963L34.4361 60.1962ZM34.4361 54.7377L31.3732 56.4948L31.2368 56.5495L30.9176 55.6258L32.9877 54.3373L30.9176 53.0489L31.2435 52.1036L34.4351 53.936V54.7378L34.4361 54.7377ZM37.018 60.308H34.9244V59.2768H37.018V60.308ZM37.356 53.8182H39.4486V54.8495H37.356V53.8182ZM37.356 59.2768H39.4486V60.308H37.356V59.2768ZM37.018 54.8495H34.9244V53.8183H37.018V54.8495ZM27.1269 20.1619V18.7831L32.0545 15.9281L32.6748 17.7241L29.7765 19.4726L32.6748 21.2211L32.0545 23.017L27.1269 20.1619ZM35.6902 14.4999H37.7871L34.2436 24.4463H32.1241L35.6902 14.4999ZM42.7858 20.1619L37.8582 23.0169L37.2398 21.221L40.1371 19.4725L37.2398 17.7239L37.8582 15.928L42.7858 18.783V20.1619ZM59.1513 51.0851L56.0883 52.8422L55.952 52.8969L55.6327 51.9732L57.7029 50.6847L55.6327 49.3962L55.9587 48.451L59.1503 50.2834V51.0851L59.1513 51.0851ZM59.1513 45.6265L56.0883 47.3836L55.952 47.4374L55.6327 46.5137L57.7029 45.2252L55.6337 43.9391L55.9597 42.9938L59.1513 44.8263L59.1513 45.6265ZM61.7332 51.1969H59.6395V50.1657H61.7332V51.1969ZM61.7332 45.7384H59.6395V44.7072H61.7332V45.7384ZM64.1638 51.1969H62.0711V50.1657H64.1638V51.1969ZM64.1638 45.7384H62.0711V44.7072H64.1638V45.7384Z" fill="#CBCBCB"/>
</svg>
