<svg width="68" height="69" viewBox="0 0 68 69" fill="none" xmlns="http://www.w3.org/2000/svg">
<path d="M55.722 59.15C55.3778 59.15 55.0341 59.0185 54.7715 58.7563L52.083 56.0679C51.5583 55.5431 51.5583 54.692 52.083 54.1667C52.6082 53.642 53.4589 53.642 53.9842 54.1667L55.7221 55.9047L60.1485 51.4783C60.6737 50.9535 61.5244 50.9535 62.0497 51.4783C62.5744 52.003 62.5744 52.8541 62.0497 53.3794L56.6727 58.7563C56.4101 59.0185 56.0664 59.15 55.7222 59.15H55.722Z" fill="#CBCBCB"/>
<path d="M50.0282 32.2654C49.2859 32.2654 48.6839 31.6634 48.6839 30.9211C48.6839 27.188 45.7395 24.151 42.1207 24.151C38.5019 24.151 35.5575 27.188 35.5575 30.9211C35.5575 31.6633 34.9555 32.2654 34.2133 32.2654C33.471 32.2654 32.869 31.6634 32.869 30.9211C32.869 27.188 29.9246 24.151 26.3053 24.151C22.6865 24.151 19.7417 27.188 19.7417 30.9211C19.7417 31.6633 19.1396 32.2654 18.3974 32.2654C17.6552 32.2654 17.0531 31.6634 17.0531 30.9211C17.0531 27.188 14.1087 24.151 10.4894 24.151C7.87249 24.151 5.50763 25.7525 4.4658 28.2307C4.19935 28.8649 3.497 29.1956 2.83884 28.9964C2.18064 28.7976 1.77786 28.1347 1.90604 27.4587C3.39868 19.592 7.29783 12.8765 13.1812 8.03908C19.0407 3.22197 26.3624 0.675583 34.3571 0.675583C50.6144 0.675583 63.5313 11.4222 66.5276 27.4275C66.555 27.534 66.5694 27.6454 66.5694 27.7606C66.5694 28.4759 66.0106 29.0607 65.3064 29.1025C64.7456 29.1375 64.2031 28.8144 63.9804 28.2734C62.9473 25.7688 60.5752 24.1504 57.9376 24.1504C54.3183 24.1504 51.3739 27.1874 51.3739 30.9205C51.373 31.6627 50.7714 32.2648 50.0288 32.2648L50.0282 32.2654ZM42.1207 21.4626C45.4669 21.4626 48.403 23.288 50.0282 26.0157C51.6533 23.288 54.5899 21.4626 57.9361 21.4626C59.5502 21.4626 61.0922 21.8875 62.4398 22.6542C58.1249 10.92 47.4139 3.36488 34.3569 3.36488C21.2176 3.36488 10.4121 10.9122 6.03193 22.6321C7.37044 21.8798 8.89663 21.4631 10.4909 21.4631C13.8371 21.4631 16.7737 23.2884 18.3988 26.0162C20.024 23.2884 22.9606 21.4631 26.3068 21.4631C29.653 21.4631 32.5896 23.2884 34.2147 26.0162C35.8384 23.2879 38.7755 21.4631 42.1212 21.4631L42.1207 21.4626Z" fill="#CBCBCB"/>
<path d="M50.4336 29.1056C49.7494 29.1056 49.1642 28.5857 49.097 27.8905C48.385 20.5189 46.5295 14.2657 43.7311 9.80931C41.8852 6.86977 38.7498 3.36512 34.2937 3.36512C29.8304 3.36512 26.6676 6.86448 24.8006 9.80009C21.9648 14.2586 20.0804 20.4978 19.3516 27.8432C19.2782 28.582 18.6205 29.1211 17.8811 29.0482C17.1423 28.9747 16.6027 28.3166 16.6761 27.5777C17.4462 19.8158 19.4711 13.1688 22.5321 8.3572C25.7275 3.33214 29.7948 0.676376 34.2936 0.676376C38.7934 0.676376 42.8443 3.33989 46.0081 8.37932C49.0277 13.1888 51.0211 19.8466 51.7728 27.6318C51.8439 28.3706 51.3028 29.0278 50.564 29.099C50.5198 29.1038 50.4761 29.1057 50.4334 29.1057L50.4336 29.1056Z" fill="#CBCBCB"/>
<path d="M29.8453 65.1992C26.6954 65.1992 24.1328 62.6364 24.1328 59.4867V57.1338C24.1328 56.3916 24.7348 55.7895 25.4771 55.7895C26.2194 55.7895 26.8214 56.3915 26.8214 57.1338V59.4867C26.8214 61.154 28.1781 62.5107 29.8454 62.5107C31.5127 62.5107 32.8694 61.154 32.8694 59.4867L32.8698 50.4127C32.8698 49.6705 33.4719 49.0684 34.2141 49.0684C34.9563 49.0684 35.5584 49.6704 35.5584 50.4127V59.4867C35.5584 62.6366 32.9957 65.1992 29.8455 65.1992H29.8453Z" fill="#CBCBCB"/>
<path d="M49.6727 51.7563H17.4112C16.669 51.7563 16.0669 51.1543 16.0669 50.412V36.9691C16.0669 36.2268 16.6689 35.6248 17.4112 35.6248H49.6727C50.4149 35.6248 51.017 36.2268 51.017 36.9691V50.412C51.017 51.1542 50.415 51.7563 49.6727 51.7563ZM18.7557 49.0678H48.3282V38.314H18.7557V49.0678Z" fill="#CBCBCB"/>
<path d="M34.2945 30.2486C33.5523 30.2486 32.9502 29.6466 32.9502 28.9043V2.01969C32.9502 1.27748 33.5522 0.6754 34.2945 0.6754C35.0367 0.6754 35.6388 1.27742 35.6388 2.01969V28.9043C35.6388 29.6465 35.0368 30.2486 34.2945 30.2486Z" fill="#CBCBCB"/>
<path d="M34.2134 38.3146C33.4712 38.3146 32.8691 37.7126 32.8691 36.9703V30.9212C32.8691 30.179 33.4712 29.5769 34.2134 29.5769C34.9556 29.5769 35.5577 30.1789 35.5577 30.9212V36.9703C35.5577 37.7125 34.9557 38.3146 34.2134 38.3146Z" fill="#CBCBCB"/>
<path d="M57.0656 65.1992C51.5068 65.1992 46.9839 60.6763 46.9839 55.1175C46.9839 49.5587 51.5068 45.0358 57.0656 45.0358C62.6244 45.0358 67.1473 49.5587 67.1473 55.1175C67.1473 60.6763 62.6249 65.1992 57.0656 65.1992ZM57.0656 47.7239C52.9887 47.7239 49.6723 51.0402 49.6723 55.1171C49.6723 59.194 52.9887 62.5104 57.0656 62.5104C61.1425 62.5104 64.4588 59.194 64.4588 55.1171C64.4588 51.0402 61.1425 47.7239 57.0656 47.7239Z" fill="#CBCBCB"/>
<path d="M10.69 63.8546H5.31304C4.57083 63.8546 3.96875 63.2526 3.96875 62.5104C3.96875 61.7681 4.57077 61.1661 5.31304 61.1661H10.69C11.4322 61.1661 12.0343 61.7681 12.0343 62.5104C12.0343 63.2526 11.4327 63.8546 10.69 63.8546Z" fill="#CBCBCB"/>
<path d="M10.69 59.8223H5.31304C4.57083 59.8223 3.96875 59.2202 3.96875 58.478C3.96875 57.7357 4.57077 57.1337 5.31304 57.1337H10.69C11.4322 57.1337 12.0343 57.7357 12.0343 58.478C12.0343 59.2202 11.4327 59.8223 10.69 59.8223Z" fill="#CBCBCB"/>
<path d="M10.69 55.7899H5.31304C4.57083 55.7899 3.96875 55.1879 3.96875 54.4456C3.96875 53.7033 4.57077 53.1013 5.31304 53.1013H10.69C11.4322 53.1013 12.0343 53.7033 12.0343 54.4456C12.0343 55.1879 11.4327 55.7899 10.69 55.7899Z" fill="#CBCBCB"/>
<path d="M10.69 51.7563H5.31304C4.57083 51.7563 3.96875 51.1542 3.96875 50.412C3.96875 49.6697 4.57077 49.0677 5.31304 49.0677H10.69C11.4322 49.0677 12.0343 49.6697 12.0343 50.412C12.0343 51.1542 11.4327 51.7563 10.69 51.7563Z" fill="#CBCBCB"/>
<path d="M10.69 47.7239H5.31304C4.57083 47.7239 3.96875 47.1219 3.96875 46.3796C3.96875 45.6373 4.57077 45.0353 5.31304 45.0353H10.69C11.4322 45.0353 12.0343 45.6373 12.0343 46.3796C12.0343 47.1219 11.4327 47.7239 10.69 47.7239Z" fill="#CBCBCB"/>
<path d="M10.69 43.6915H5.31304C4.57083 43.6915 3.96875 43.0895 3.96875 42.3472C3.96875 41.6049 4.57077 41.0029 5.31304 41.0029H10.69C11.4322 41.0029 12.0343 41.6049 12.0343 42.3472C12.0343 43.0895 11.4327 43.6915 10.69 43.6915Z" fill="#CBCBCB"/>
<path d="M24.9401 46.6682C24.376 47.1905 23.725 47.4517 22.9871 47.4517C22.4998 47.4517 22.0399 47.3595 21.6082 47.1746C21.1767 46.9903 20.7988 46.7306 20.4752 46.3964C20.1512 46.0623 19.8953 45.66 19.7076 45.19C19.5199 44.72 19.4258 44.2029 19.4258 43.6389C19.4258 43.1309 19.5199 42.6504 19.7076 42.1976C19.8953 41.7454 20.155 41.3517 20.4858 41.0176C20.8166 40.6834 21.2083 40.4189 21.6606 40.224C22.1133 40.0291 22.6006 39.9316 23.1228 39.9316C23.8122 39.9316 24.4148 40.0761 24.9299 40.3651C25.445 40.6541 25.8314 41.0492 26.0893 41.5504L24.8151 42.5111C24.6481 42.1769 24.4061 41.9177 24.0893 41.7329C23.7724 41.5485 23.4296 41.4559 23.0604 41.4559C22.7748 41.4559 22.5155 41.5135 22.2822 41.6282C22.0489 41.7429 21.8487 41.9033 21.6817 42.1088C21.5146 42.3143 21.3854 42.5529 21.2952 42.8241C21.2049 43.0958 21.1593 43.3882 21.1593 43.7017C21.1593 44.0219 21.2083 44.3176 21.3057 44.5894C21.4032 44.8611 21.5391 45.0959 21.7133 45.2946C21.8871 45.4929 22.0945 45.6479 22.3346 45.7593C22.5746 45.8707 22.8411 45.9264 23.1334 45.9264C23.8017 45.9264 24.4042 45.6167 24.9399 44.997V44.767H23.4987V43.5241H26.3604V47.3988H24.9398L24.9401 46.6682Z" fill="#CBCBCB"/>
<path d="M27.4893 47.3994V39.9841H30.257C30.8696 39.9841 31.4058 40.082 31.8653 40.2764C32.3247 40.4713 32.7097 40.7359 33.0194 41.07C33.329 41.4041 33.5624 41.7959 33.7193 42.2452C33.8758 42.6941 33.9546 43.1733 33.9546 43.6812C33.9546 44.2453 33.8677 44.7552 33.6934 45.2117C33.5192 45.6678 33.2705 46.0576 32.9469 46.3812C32.6228 46.7052 32.233 46.9559 31.7769 47.1335C31.3209 47.3111 30.8144 47.3999 30.2575 47.3999L27.4893 47.3994ZM32.2104 43.6812C32.2104 43.3538 32.1667 43.0566 32.0798 42.7882C31.9929 42.5203 31.8657 42.2889 31.6986 42.0936C31.5315 41.8986 31.3261 41.7489 31.0822 41.6447C30.8383 41.54 30.5632 41.4882 30.2569 41.4882H29.2022V45.8958H30.2569C30.5704 45.8958 30.8489 45.8401 31.0923 45.7287C31.3362 45.6173 31.5397 45.4623 31.7034 45.264C31.8667 45.0652 31.992 44.8324 32.0793 44.564C32.1667 44.2957 32.2104 44.0014 32.2104 43.6812Z" fill="#CBCBCB"/>
<path d="M34.9678 47.3994V39.9841H38.1325C38.4877 39.9841 38.8132 40.057 39.109 40.2035C39.4052 40.3494 39.6587 40.5414 39.8713 40.7777C40.0835 41.0143 40.2506 41.2827 40.3725 41.5818C40.4945 41.8814 40.5554 42.1838 40.5554 42.4906C40.5554 42.818 40.4978 43.1315 40.3831 43.4306C40.2684 43.7302 40.108 43.998 39.9025 44.2347C39.6971 44.4714 39.4484 44.6596 39.1555 44.7988C38.8632 44.938 38.5391 45.0076 38.1843 45.0076H36.6803V47.3994H34.9678ZM36.6808 43.5142H38.0802C38.2824 43.5142 38.4561 43.4273 38.6026 43.253C38.749 43.0792 38.822 42.8248 38.822 42.4906C38.822 42.3168 38.7994 42.1666 38.7543 42.0418C38.7092 41.9165 38.6482 41.8118 38.5714 41.7283C38.4946 41.6447 38.4077 41.5837 38.3107 41.5453C38.2127 41.5069 38.1158 41.4877 38.0183 41.4877H36.6813L36.6808 43.5142Z" fill="#CBCBCB"/>
<path d="M41.4743 47.3994V39.9841H44.8166C45.1646 39.9841 45.4868 40.057 45.7825 40.2035C46.0782 40.3494 46.3341 40.5414 46.5502 40.7777C46.7657 41.0143 46.9347 41.2827 47.0567 41.5818C47.1786 41.8814 47.2396 42.1838 47.2396 42.4906C47.2396 42.7205 47.2117 42.9414 47.156 43.1541C47.1003 43.3667 47.0202 43.5664 46.916 43.7546C46.8113 43.9423 46.6846 44.1113 46.5348 44.2611C46.385 44.4109 46.2165 44.5381 46.0283 44.6423L47.6577 47.4H45.7254L44.3048 45.0082H43.1871V47.4H41.4741L41.4743 47.3994ZM43.1873 43.5142H44.7538C44.9559 43.5142 45.1302 43.4186 45.2761 43.2271C45.4225 43.0355 45.4955 42.7902 45.4955 42.4906C45.4955 42.1843 45.412 41.9409 45.2449 41.7595C45.0778 41.5785 44.8969 41.4877 44.7019 41.4877H43.1873L43.1873 43.5142Z" fill="#CBCBCB"/>
<path d="M0.552459 69.3394C0.529415 69.3509 0.504931 69.3601 0.479487 69.3663C0.455002 69.3725 0.429558 69.3759 0.402673 69.3759C0.320579 69.3759 0.25529 69.3538 0.206794 69.3087C0.159265 69.2626 0.135742 69.2007 0.135742 69.1224C0.135742 69.0432 0.159267 68.9813 0.206794 68.9361C0.255282 68.8901 0.320573 68.867 0.402673 68.867C0.429558 68.867 0.455002 68.8704 0.479487 68.8766C0.504931 68.8833 0.529415 68.892 0.552459 68.9035V69.0053C0.529415 68.9899 0.506371 68.9784 0.483327 68.9707C0.461243 68.963 0.43772 68.9592 0.412276 68.9592C0.367148 68.9592 0.331622 68.9741 0.304737 69.0034C0.278813 69.0317 0.266331 69.0715 0.266331 69.1224C0.266331 69.1723 0.278813 69.2122 0.304737 69.2415C0.331622 69.2698 0.367148 69.2837 0.412276 69.2837C0.43772 69.2837 0.461244 69.2808 0.483327 69.2741C0.506371 69.2664 0.529415 69.2544 0.552459 69.2376V69.3394Z" fill="#CBCBCB"/>
<path d="M0.926462 69.0994C0.9159 69.0946 0.905818 69.0907 0.895737 69.0878C0.885175 69.0854 0.875093 69.084 0.865011 69.084C0.834286 69.084 0.810282 69.0946 0.79396 69.1147C0.778597 69.1339 0.770916 69.1618 0.770916 69.1973V69.3663H0.651855V68.9995H0.770916V69.059C0.784838 69.035 0.801641 69.0177 0.820844 69.0072C0.841008 68.9957 0.865013 68.9899 0.891896 68.9899H0.905339C0.91014 68.9899 0.916861 68.9909 0.924542 68.9918L0.926462 69.0994Z" fill="#CBCBCB"/>
<path d="M1.3507 69.1819V69.2146H1.07609C1.07993 69.2429 1.09001 69.264 1.10682 69.278C1.12314 69.2909 1.14714 69.2972 1.17787 69.2972C1.20331 69.2972 1.22876 69.2943 1.25468 69.2876C1.28012 69.2799 1.30653 69.2684 1.33341 69.253V69.3432C1.30653 69.3548 1.27868 69.3634 1.25084 69.3682C1.22251 69.373 1.19515 69.3759 1.16826 69.3759C1.10153 69.3759 1.04968 69.3596 1.01272 69.326C0.975273 69.2914 0.957031 69.2434 0.957031 69.1819C0.957031 69.1234 0.974794 69.0763 1.0108 69.0418C1.04777 69.0072 1.0977 68.9899 1.16059 68.9899C1.2182 68.9899 1.26429 69.0072 1.29886 69.0418C1.33342 69.0763 1.3507 69.1234 1.3507 69.1819ZM1.23164 69.1416C1.23164 69.12 1.22444 69.1027 1.21052 69.0898C1.19755 69.0758 1.18075 69.0686 1.16059 69.0686C1.13754 69.0686 1.11882 69.0754 1.1049 69.0878C1.0905 69.1008 1.08185 69.1186 1.07801 69.1416L1.23164 69.1416Z" fill="#CBCBCB"/>
<path d="M1.60462 69.2011C1.58014 69.2011 1.56142 69.2059 1.54893 69.2146C1.53741 69.2223 1.53165 69.2347 1.53165 69.2511C1.53165 69.2655 1.53597 69.277 1.54509 69.2856C1.55518 69.2933 1.5691 69.2972 1.58734 69.2972C1.60895 69.2972 1.62767 69.2895 1.64303 69.2741C1.65839 69.2587 1.66607 69.2391 1.66607 69.2146V69.2011H1.60462ZM1.78514 69.157V69.3663H1.66608V69.3125C1.65072 69.3346 1.63247 69.3504 1.61231 69.3605C1.59311 69.3706 1.5691 69.3759 1.54126 69.3759C1.50285 69.3759 1.47117 69.3653 1.44716 69.3432C1.42412 69.3202 1.4126 69.2914 1.4126 69.2568C1.4126 69.2136 1.427 69.1815 1.45677 69.1608C1.48605 69.1406 1.53262 69.1301 1.59695 69.1301H1.66608V69.1224C1.66608 69.1032 1.6584 69.0898 1.64303 69.0821C1.62863 69.0734 1.60655 69.0686 1.57582 69.0686C1.5499 69.0686 1.52637 69.0715 1.50477 69.0763C1.48269 69.0816 1.463 69.0888 1.44524 69.0974V69.0091C1.46924 69.0029 1.49421 68.9985 1.52013 68.9957C1.54558 68.9918 1.57102 68.9899 1.59695 68.9899C1.6632 68.9899 1.71121 69.0033 1.74097 69.0302C1.77026 69.0561 1.78514 69.0984 1.78514 69.157Z" fill="#CBCBCB"/>
<path d="M2.02143 68.8939V68.9995H2.14241V69.0821H2.02143V69.2395C2.02143 69.2563 2.02431 69.2679 2.03103 69.2741C2.03871 69.2794 2.05263 69.2818 2.07328 69.2818H2.13281V69.3663H2.03295C1.98542 69.3663 1.9523 69.3567 1.9331 69.3375C1.91389 69.3183 1.90429 69.2856 1.90429 69.2395V69.0821H1.84668V68.9995H1.90429V68.8939L2.02143 68.8939Z" fill="#CBCBCB"/>
<path d="M2.58117 69.1819V69.2146H2.30656C2.3104 69.2429 2.32048 69.264 2.33728 69.278C2.35361 69.2909 2.37761 69.2972 2.40834 69.2972C2.43378 69.2972 2.45922 69.2943 2.48515 69.2876C2.51059 69.2799 2.537 69.2684 2.56388 69.253V69.3432C2.537 69.3548 2.50915 69.3634 2.48131 69.3682C2.45298 69.373 2.42562 69.3759 2.39873 69.3759C2.332 69.3759 2.28015 69.3596 2.24319 69.326C2.20574 69.2914 2.1875 69.2434 2.1875 69.1819C2.1875 69.1234 2.20526 69.0763 2.24127 69.0418C2.27824 69.0072 2.32816 68.9899 2.39106 68.9899C2.44867 68.9899 2.49476 69.0072 2.52932 69.0418C2.56389 69.0763 2.58117 69.1234 2.58117 69.1819ZM2.46211 69.1416C2.46211 69.12 2.45491 69.1027 2.44098 69.0898C2.42802 69.0758 2.41122 69.0686 2.39106 69.0686C2.36801 69.0686 2.34929 69.0754 2.33537 69.0878C2.32096 69.1008 2.31232 69.1186 2.30848 69.1416L2.46211 69.1416Z" fill="#CBCBCB"/>
<path d="M2.92204 69.0533V68.8555H3.03918V69.3663H2.92204V69.3125C2.90523 69.3346 2.88747 69.3504 2.86827 69.3605C2.84906 69.3706 2.8265 69.3759 2.80106 69.3759C2.75497 69.3759 2.71704 69.3581 2.68776 69.3221C2.65943 69.2866 2.64551 69.2395 2.64551 69.1819C2.64551 69.1258 2.65943 69.0797 2.68776 69.0437C2.71704 69.0081 2.75497 68.9899 2.80106 68.9899C2.82506 68.9899 2.84714 68.9952 2.86635 69.0053C2.88651 69.0158 2.90523 69.0317 2.92204 69.0533ZM2.8433 69.2914C2.86875 69.2914 2.88795 69.2828 2.90091 69.2645C2.91484 69.2453 2.92204 69.2179 2.92204 69.1819C2.92204 69.1474 2.91484 69.1215 2.90091 69.1032C2.88795 69.084 2.86875 69.0744 2.8433 69.0744C2.81882 69.0744 2.79962 69.084 2.78569 69.1032C2.77273 69.1215 2.76649 69.1474 2.76649 69.1819C2.76649 69.2179 2.77273 69.2453 2.78569 69.2645C2.79962 69.2828 2.81882 69.2914 2.8433 69.2914Z" fill="#CBCBCB"/>
<path d="M3.58113 69.2914C3.60657 69.2914 3.62577 69.2828 3.63874 69.2645C3.65266 69.2453 3.65986 69.2179 3.65986 69.1819C3.65986 69.1474 3.65266 69.1214 3.63874 69.1032C3.62577 69.084 3.60657 69.0744 3.58113 69.0744C3.55664 69.0744 3.53744 69.084 3.52352 69.1032C3.51056 69.1214 3.50431 69.1474 3.50431 69.1819C3.50431 69.2179 3.51056 69.2453 3.52352 69.2645C3.53744 69.2828 3.55664 69.2914 3.58113 69.2914ZM3.50431 69.0533C3.51968 69.0317 3.53696 69.0158 3.55616 69.0053C3.57633 68.9952 3.59937 68.9899 3.6253 68.9899C3.66994 68.9899 3.70691 69.0081 3.73667 69.0437C3.76596 69.0797 3.78084 69.1258 3.78084 69.1819C3.78084 69.2395 3.76596 69.2866 3.73667 69.3221C3.70691 69.3581 3.66994 69.3759 3.6253 69.3759C3.59937 69.3759 3.57633 69.3706 3.55616 69.3605C3.53696 69.3504 3.51968 69.3346 3.50431 69.3125V69.3663H3.38525V68.8555H3.50431V69.0533Z" fill="#CBCBCB"/>
<path d="M3.81885 68.9995H3.93599L4.03584 69.2472L4.12034 68.9995H4.23748L4.08193 69.4009C4.06657 69.4417 4.04833 69.4705 4.02817 69.4873C4.00752 69.5036 3.98016 69.5122 3.94559 69.5122H3.87838V69.4335H3.91487C3.93503 69.4335 3.94991 69.4301 3.95903 69.4239C3.96768 69.4172 3.97488 69.4066 3.98016 69.3913L3.984 69.3797L3.81885 68.9995Z" fill="#CBCBCB"/>
<path d="M4.54443 68.8766H4.88625V68.9726H4.67117V69.0629H4.8728V69.1589H4.67117V69.3663H4.54443V68.8766Z" fill="#CBCBCB"/>
<path d="M4.99756 68.8555H5.11662V69.3663H4.99756V68.8555Z" fill="#CBCBCB"/>
<path d="M5.3932 69.2011C5.36871 69.2011 5.34999 69.2059 5.33751 69.2146C5.32599 69.2223 5.32023 69.2347 5.32023 69.2511C5.32023 69.2655 5.32455 69.277 5.33367 69.2856C5.34375 69.2933 5.35767 69.2972 5.37592 69.2972C5.39752 69.2972 5.41624 69.2895 5.43161 69.2741C5.44697 69.2587 5.45465 69.2391 5.45465 69.2146V69.2011H5.3932ZM5.57371 69.157V69.3663H5.45465V69.3125C5.43929 69.3346 5.42105 69.3504 5.40088 69.3605C5.38168 69.3706 5.35768 69.3759 5.32983 69.3759C5.29143 69.3759 5.25974 69.3653 5.23574 69.3432C5.21269 69.3202 5.20117 69.2914 5.20117 69.2568C5.20117 69.2136 5.21557 69.1815 5.24534 69.1608C5.27462 69.1406 5.32119 69.1301 5.38552 69.1301H5.45465V69.1224C5.45465 69.1032 5.44697 69.0898 5.43161 69.0821C5.41721 69.0734 5.39512 69.0686 5.3644 69.0686C5.33847 69.0686 5.31495 69.0715 5.29335 69.0763C5.27126 69.0816 5.25158 69.0888 5.23381 69.0974V69.0091C5.25782 69.0029 5.28278 68.9985 5.30871 68.9957C5.33415 68.9918 5.3596 68.9899 5.38552 68.9899C5.45177 68.9899 5.49978 69.0033 5.52955 69.0302C5.55883 69.0561 5.57371 69.0984 5.57371 69.157Z" fill="#CBCBCB"/>
<path d="M5.81049 68.8939V68.9995H5.93147V69.0821H5.81049V69.2395C5.81049 69.2563 5.81337 69.2679 5.82009 69.2741C5.82778 69.2794 5.8417 69.2818 5.86234 69.2818H5.92187V69.3663H5.82201C5.77449 69.3663 5.74136 69.3567 5.72216 69.3375C5.70295 69.3183 5.69335 69.2856 5.69335 69.2395V69.0821H5.63574V68.9995H5.69335V68.8939L5.81049 68.8939Z" fill="#CBCBCB"/>
<path d="M6.1681 69.2011C6.14362 69.2011 6.12489 69.2059 6.11241 69.2146C6.10089 69.2223 6.09513 69.2347 6.09513 69.2511C6.09513 69.2655 6.09945 69.277 6.10857 69.2856C6.11865 69.2933 6.13258 69.2972 6.15082 69.2972C6.17242 69.2972 6.19114 69.2895 6.20651 69.2741C6.22187 69.2587 6.22955 69.2391 6.22955 69.2146V69.2011H6.1681ZM6.34862 69.157V69.3663H6.22956V69.3125C6.21419 69.3346 6.19595 69.3504 6.17579 69.3605C6.15658 69.3706 6.13258 69.3759 6.10474 69.3759C6.06633 69.3759 6.03464 69.3653 6.01064 69.3432C5.9876 69.3202 5.97607 69.2914 5.97607 69.2568C5.97607 69.2136 5.99048 69.1815 6.02024 69.1608C6.04953 69.1406 6.0961 69.1301 6.16042 69.1301H6.22956V69.1224C6.22956 69.1032 6.22187 69.0898 6.20651 69.0821C6.19211 69.0734 6.17002 69.0686 6.1393 69.0686C6.11337 69.0686 6.08985 69.0715 6.06825 69.0763C6.04616 69.0816 6.02648 69.0888 6.00872 69.0974V69.0091C6.03272 69.0029 6.05769 68.9985 6.08361 68.9957C6.10905 68.9918 6.1345 68.9899 6.16042 68.9899C6.22667 68.9899 6.27468 69.0033 6.30445 69.0302C6.33374 69.0561 6.34862 69.0984 6.34862 69.157Z" fill="#CBCBCB"/>
<path d="M6.73066 69.0994C6.7201 69.0946 6.71002 69.0907 6.69994 69.0878C6.68937 69.0854 6.67929 69.084 6.66921 69.084C6.63849 69.084 6.61448 69.0946 6.59816 69.1147C6.5828 69.1339 6.57512 69.1618 6.57512 69.1973V69.3663H6.45605V68.9995H6.57512V69.059C6.58904 69.035 6.60584 69.0177 6.62504 69.0072C6.64521 68.9957 6.66921 68.9899 6.6961 68.9899H6.70954C6.71434 68.9899 6.72106 68.9909 6.72874 68.9918L6.73066 69.0994Z" fill="#CBCBCB"/>
<path d="M6.91645 68.8939V68.9995H7.03743V69.0821H6.91645V69.2395C6.91645 69.2563 6.91933 69.2679 6.92605 69.2741C6.93373 69.2794 6.94765 69.2818 6.9683 69.2818H7.02783V69.3663H6.92797C6.88044 69.3663 6.84732 69.3567 6.82811 69.3375C6.80891 69.3183 6.79931 69.2856 6.79931 69.2395V69.0821H6.7417V68.9995H6.79931V68.8939L6.91645 68.8939Z" fill="#CBCBCB"/>
</svg>
