<svg width="76" height="59" viewBox="0 0 76 59" fill="none" xmlns="http://www.w3.org/2000/svg">
<path d="M23.5825 32.8669C23.4339 32.6368 23.1822 32.4989 22.9137 32.4989C22.6452 32.4989 22.3946 32.6368 22.245 32.8669L18.7055 38.3313C18.5407 38.5852 18.5256 38.9117 18.6651 39.1805C18.8047 39.4493 19.0772 39.6171 19.3737 39.6171H20.538V44.6449C20.538 45.1012 20.8979 45.4721 21.3419 45.4721H24.484C24.9274 45.4721 25.2878 45.1017 25.2878 44.6449V39.6171H26.4516C26.7481 39.6171 27.0206 39.4493 27.1602 39.1805C27.2997 38.9117 27.2846 38.5852 27.1198 38.3313L23.5825 32.8669ZM24.485 37.9634C24.0416 37.9634 23.6812 38.3337 23.6812 38.7905V43.8183H22.1463V38.7905C22.1463 38.3343 21.7865 37.9634 21.3425 37.9634H20.8755L22.9138 34.8166L24.9508 37.9634H24.485ZM15.2798 23.2002L9.96943 19.5581C9.72277 19.3885 9.40549 19.3729 9.14427 19.5165C8.88304 19.6602 8.71992 19.9405 8.71992 20.2457V21.4438L5.47135 21.4449C5.02794 21.4449 4.66748 21.8153 4.66748 22.2721V25.5054C4.66748 25.9617 5.02737 26.3326 5.47135 26.3326H8.71992V27.5307C8.71992 27.8358 8.88304 28.1162 9.14427 28.2598C9.26311 28.325 9.39317 28.3573 9.52377 28.3573C9.67961 28.3573 9.8349 28.3111 9.96999 28.2183L15.2803 24.5761C15.504 24.4221 15.638 24.1642 15.638 23.8879C15.6374 23.6122 15.5034 23.3542 15.2798 23.2002ZM10.3271 25.9858V25.5052C10.3271 25.049 9.96717 24.6781 9.52319 24.6781H6.27519V23.0987H9.52376C9.96717 23.0987 10.3276 22.7284 10.3276 22.2715V21.791L13.385 23.8884L10.3271 25.9858ZM22.2449 14.7662C22.3946 14.9963 22.6451 15.1342 22.9137 15.1342C23.1822 15.1342 23.4339 14.9963 23.5824 14.7662L27.1207 9.30173C27.2855 9.04792 27.3007 8.72143 27.1611 8.45262C27.0215 8.18382 26.7491 8.01596 26.4525 8.01596H25.2888V2.98821C25.2888 2.53193 24.9289 2.16101 24.4849 2.16101H21.3428C20.8994 2.16101 20.5389 2.53134 20.5389 2.98821V8.01596H19.3746C19.0781 8.01596 18.8057 8.18382 18.6661 8.45262C18.5265 8.72143 18.5416 9.04792 18.7064 9.30173L22.2449 14.7662ZM21.3424 9.66973C21.7858 9.66973 22.1462 9.2994 22.1462 8.84254V3.81478H23.681V8.84254C23.681 9.29881 24.0409 9.66973 24.4849 9.66973H24.9507L22.9137 12.8165L20.8754 9.66973H21.3424ZM22.9136 17.4513C21.242 17.4513 19.6718 18.121 18.4902 19.337C16.0511 21.8468 16.0511 25.9302 18.4902 28.4402C19.6713 29.6556 21.242 30.326 22.9136 30.326C24.5842 30.326 26.1554 29.6562 27.3371 28.4402C29.7761 25.9304 29.7761 21.847 27.3371 19.337C26.1554 18.121 24.584 17.4513 22.9136 17.4513ZM24.0499 23.8882L26.1386 21.7389C26.9593 23.042 26.9593 24.7338 26.1386 26.0374L24.0499 23.8882ZM25.0012 20.5702L22.9136 22.7184L20.826 20.5702C21.4432 20.1578 22.1607 19.9317 22.9136 19.9317C23.6664 19.9322 24.3851 20.1578 25.0012 20.5702ZM19.6886 26.0374C18.8679 24.7344 18.8679 23.0425 19.6886 21.7389L21.7773 23.8882L19.6886 26.0374ZM20.8254 27.2061L22.913 25.058L25.0006 27.2061C24.3834 27.6186 23.6659 27.8447 22.913 27.8447C22.1607 27.8441 21.4426 27.6186 20.8254 27.2061ZM43.2685 23.2L36.8448 18.7958C36.597 18.6262 36.2809 18.6107 36.0196 18.7543C35.7584 18.8979 35.5953 19.1783 35.5953 19.4834V21.1048H31.4986C31.0552 21.1048 30.6947 21.4752 30.6947 21.932V25.8424C30.6947 26.2986 31.0546 26.6696 31.4986 26.6696H35.5953V28.291C35.5953 28.5961 35.7584 28.8765 36.0196 29.0201C36.1385 29.0853 36.2685 29.1176 36.3992 29.1176C36.555 29.1176 36.7103 29.0714 36.8454 28.9786L43.269 24.5744C43.4927 24.4204 43.6267 24.1626 43.6267 23.8863C43.6256 23.6111 43.4916 23.354 43.2685 23.2ZM37.2024 26.7475V25.8436C37.2024 25.3873 36.8425 25.0164 36.3986 25.0164H32.3019V22.7598H36.3986C36.842 22.7598 37.2024 22.3895 37.2024 21.9326V21.0287L41.373 23.888L37.2024 26.7475ZM49.9824 32.0486H54.6638H54.6644H54.666H54.6666H54.6672C54.7709 32.0468 54.865 32.0053 54.9357 31.9378C54.9559 31.9182 54.9744 31.8963 54.9901 31.8726C55.0203 31.827 55.0422 31.7751 55.0545 31.7197L58.3575 16.5569H60.2381C60.4601 16.5569 60.6401 16.3717 60.6401 16.1433C60.6401 15.9149 60.4601 15.7297 60.2381 15.7297H55.545C55.3572 15.7297 55.1941 15.8635 55.1526 16.0533L51.8475 31.225H49.9796C49.7576 31.225 49.5777 31.4102 49.5777 31.6386C49.5782 31.8659 49.761 32.0487 49.9824 32.0487L49.9824 32.0486ZM55.8701 16.5549H57.5378L54.3425 31.2216H52.6748L55.8701 16.5549ZM70.5954 18.0137C70.7848 18.1279 71.1083 18.1435 71.3992 18.0137L75.5974 15.5194C75.8463 15.3712 75.9993 15.0983 75.9993 14.8036C75.9993 14.5082 75.8469 14.2348 75.5974 14.0877L71.3992 11.5934C71.1503 11.4451 70.8448 11.4451 70.5954 11.5934C70.3465 11.7416 70.1934 12.0145 70.1934 12.3092V13.9821H65.6326V6.55702H70.1934V8.21492C70.1934 8.51026 70.3386 8.7981 70.5954 8.93078C70.934 9.10614 71.2742 9.00462 71.3992 8.93078L75.5974 6.43647C75.8463 6.28822 75.9993 6.01537 75.9993 5.72061C75.9993 5.42527 75.8469 5.15184 75.5974 5.00474L71.3992 2.51043C71.1503 2.36218 70.8448 2.36218 70.5954 2.51043C70.3465 2.65868 70.1934 2.93153 70.1934 3.2263V4.90266H65.6326V1.89327C65.6326 0.980132 64.9123 0.239502 64.0255 0.239502H46.1976C45.3102 0.239502 44.5905 0.980737 44.5905 1.89327V45.8845C44.5905 46.7976 45.3108 47.5382 46.1976 47.5382H64.0255C64.9129 47.5382 65.6326 46.797 65.6326 45.8845V42.8751H70.1934V44.5455C70.1934 44.8409 70.3476 45.112 70.5954 45.2614C70.8712 45.4287 71.2742 45.3352 71.3992 45.2614L75.5974 42.7665C75.8463 42.6183 75.9993 42.3454 75.9993 42.0506C75.9993 41.7553 75.8469 41.4819 75.5974 41.3348L71.3992 38.8405C71.1503 38.6922 70.8448 38.6922 70.5954 38.8405C70.3465 38.9887 70.1934 39.2616 70.1934 39.5563V41.221H65.6326V33.796H70.1934V35.463C70.1934 35.7584 70.3532 36.0197 70.5954 36.1789C70.846 36.345 71.3594 36.2031 71.3992 36.1789L75.5974 33.6846C75.8463 33.5363 75.9993 33.2635 75.9993 32.9687C75.9993 32.6734 75.8469 32.4 75.5974 32.2529L71.3992 29.7585C71.1503 29.6103 70.8448 29.6103 70.5954 29.7585C70.3465 29.9068 70.1934 30.1796 70.1934 30.4744V32.1415H65.6326L65.6332 24.7152H70.194V26.3799C70.194 26.6753 70.3459 26.9504 70.5959 27.0958C70.8336 27.2348 71.2748 27.1696 71.3998 27.0958L75.598 24.6015C75.8469 24.4532 75.9999 24.1804 75.9999 23.8856C75.9999 23.5903 75.8474 23.3169 75.598 23.1698L71.3998 20.6754C71.1509 20.5272 70.8454 20.5272 70.5959 20.6754C70.347 20.8237 70.194 21.0965 70.194 21.3913L70.1934 23.0607H65.6326V15.6357H70.1934V17.297C70.1934 17.5923 70.347 17.8646 70.5954 18.0134V18.0137ZM71.8006 4.65822L73.5877 5.72018L71.8006 6.78214V4.65822ZM71.8006 40.9882L73.5877 42.0502L71.8006 43.1122V40.9882ZM71.8006 31.9059L73.5877 32.9678L71.8006 34.0298V31.9059ZM71.8006 22.8235L73.5877 23.8855L71.8006 24.9475V22.8235ZM62.4183 44.2299H47.8035V3.54655H62.4183V44.2299ZM71.8006 13.7403L73.5877 14.8022L71.8006 15.8642V13.7403Z" fill="#CBCBCB"/>
</svg>
