<svg width="69" height="76" viewBox="0 0 69 76" fill="none" xmlns="http://www.w3.org/2000/svg">
<path d="M68.4337 20.0129L34.5155 0.128784L0.587456 20.0338C0.512083 20.077 0.447754 20.1735 0.447754 20.2705V25.3032H68.573V20.2705C68.573 20.163 68.5193 20.077 68.4333 20.0127L68.4337 20.0129ZM34.6556 19.7979C31.6878 19.7979 29.2787 17.3782 29.2787 14.4209C29.2787 11.4637 31.6878 9.04403 34.6556 9.04403C37.6234 9.04403 40.0325 11.4531 40.0325 14.4209C40.0325 17.3888 37.6129 19.7979 34.6556 19.7979Z" fill="#CBCBCB"/>
<path d="M68.7987 61.4478V68.7498C68.7987 68.8679 68.7017 68.9544 68.5942 68.9544L0.436941 68.9539C0.31884 68.9539 0.232422 68.8569 0.232422 68.7494V61.4473C0.232422 61.3292 0.329397 61.2428 0.436941 61.2428H68.5843C68.7029 61.2433 68.7994 61.3292 68.7994 61.4478H68.7987Z" fill="#CBCBCB"/>
<path d="M18.9547 56.0057V59.0168H6.78125V56.0057C6.78125 55.7263 6.99633 55.5002 7.27573 55.5002H18.4703C18.7396 55.5007 18.9547 55.7369 18.9547 56.0057Z" fill="#CBCBCB"/>
<path d="M8.37309 31.0458H8.14697C8.17914 31.0352 8.22235 31.0352 8.26507 31.0352C8.28668 31.0352 8.34044 31.0352 8.37309 31.0458Z" fill="#CBCBCB"/>
<path d="M18.955 27.5296V30.5512C18.955 30.8201 18.7399 31.0457 18.4605 31.0457H17.6002C17.568 31.0351 17.5248 31.0351 17.4821 31.0351C17.4499 31.0351 17.4067 31.0351 17.364 31.0457L8.37351 31.0462C8.34135 31.0356 8.29814 31.0356 8.25541 31.0356C8.22325 31.0356 8.18004 31.0356 8.13731 31.0462H7.26548C6.98607 31.0462 6.771 30.8205 6.771 30.5517V27.5301L18.955 27.5296Z" fill="#CBCBCB"/>
<path d="M9.37354 33.2727H16.3741V53.2749H9.37354V33.2727Z" fill="#CBCBCB"/>
<path d="M17.5992 31.0458H17.3735C17.4057 31.0352 17.4489 31.0352 17.4916 31.0352C17.5132 31.0352 17.567 31.0352 17.5992 31.0458Z" fill="#CBCBCB"/>
<path d="M62.2492 56.0057V59.0168H50.0757V56.0057C50.0757 55.7263 50.2908 55.5002 50.5702 55.5002H61.7647C62.0341 55.5007 62.2492 55.7369 62.2492 56.0057Z" fill="#CBCBCB"/>
<path d="M51.6675 31.0458H51.4419C51.4741 31.0352 51.5173 31.0352 51.56 31.0352C51.5922 31.0352 51.6354 31.0352 51.6675 31.0458Z" fill="#CBCBCB"/>
<path d="M62.2492 27.5296V30.5512C62.2492 30.8201 62.0341 31.0457 61.7547 31.0457H60.8944C60.8623 31.0351 60.8191 31.0351 60.7763 31.0351C60.7442 31.0351 60.701 31.0351 60.6582 31.0457H51.6572C51.625 31.0351 51.5818 31.0351 51.5391 31.0351C51.5069 31.0351 51.4637 31.0351 51.421 31.0457H50.5501C50.2707 31.0457 50.0557 30.8201 50.0557 30.5512V27.5296H62.2492Z" fill="#CBCBCB"/>
<path d="M52.668 33.2727H59.6685V53.2749H52.668V33.2727Z" fill="#CBCBCB"/>
<path d="M60.8951 31.0458H60.6694C60.7016 31.0352 60.7448 31.0352 60.7875 31.0352C60.8197 31.0352 60.8629 31.0352 60.8951 31.0458Z" fill="#CBCBCB"/>
</svg>
