<svg width="78" height="64" viewBox="0 0 78 64" fill="none" xmlns="http://www.w3.org/2000/svg">
<path d="M24.3698 34.3856L25.8902 35.906C26.7279 36.7447 28.0938 36.7447 28.9315 35.906L29.2498 35.5877C30.0563 36.0395 30.9046 36.3933 31.7889 36.6425V37.0904C31.7889 38.2766 32.7534 39.2411 33.9397 39.2411V41.3919H29.6381C29.0433 41.3919 28.5627 41.8739 28.5627 42.4673V53.2211C28.5627 53.8145 29.0433 54.2965 29.6381 54.2965H40.392C40.9868 54.2965 41.4674 53.8145 41.4674 53.2211V42.4673C41.4674 41.8739 40.9868 41.3919 40.392 41.3919H36.0904V39.2411C37.2767 39.2411 38.2412 38.2766 38.2412 37.0904V36.6439C39.125 36.3933 39.9739 36.0404 40.7803 35.5892L41.0986 35.9074C41.9364 36.7462 43.3022 36.7462 44.1399 35.9074L45.6604 34.387C46.4991 33.5483 46.4991 32.1834 45.6604 31.3447L45.3421 31.0274C45.7938 30.2209 46.1476 29.3711 46.3968 28.4883H46.8442C48.0305 28.4883 48.995 27.5238 48.995 26.3375H52.2212V41.3929H47.9196C47.3248 41.3929 46.8442 41.8749 46.8442 42.4683V53.2221C46.8442 53.8155 47.3248 54.2975 47.9196 54.2975H58.6735C59.2683 54.2975 59.7488 53.8155 59.7488 53.2221V42.4673C59.7488 41.8739 59.2683 41.3919 58.6735 41.3919H54.3719V25.2611C54.3719 24.6678 53.8914 24.1858 53.2965 24.1858H48.995C48.995 22.9995 48.0305 22.035 46.8442 22.035H46.3978C46.1481 21.1521 45.7933 20.3023 45.343 19.4959L45.6613 19.1776C46.5 18.3389 46.5 16.974 45.6613 16.1353L44.1409 14.6149C43.3032 13.7762 41.9373 13.7762 41.0996 14.6149L40.7813 14.9332C40.6406 14.8544 40.4918 14.7954 40.3492 14.7234C40.3641 14.6514 40.392 14.5837 40.392 14.5073V11.2812H43.6181C44.0526 11.2812 44.4463 11.0186 44.6119 10.6177C44.7785 10.2154 44.6863 9.75308 44.3786 9.44534L35.7755 0.842272C35.3549 0.421717 34.6751 0.421717 34.2551 0.842272L25.652 9.44534C25.3443 9.75308 25.2521 10.2154 25.4187 10.6177C25.5838 11.0186 25.9775 11.2812 26.412 11.2812H29.6381V14.5073C29.6381 14.5837 29.666 14.6514 29.6823 14.7234C29.5392 14.7963 29.3909 14.8544 29.2502 14.9332L28.9319 14.6149C28.0942 13.7762 26.7283 13.7762 25.8906 14.6149L24.3702 16.1353C23.5315 16.974 23.5315 18.3389 24.3702 19.1776L24.6885 19.4949C24.2367 20.3014 23.8829 21.1512 23.6338 22.034H23.1859C21.9996 22.034 21.0351 22.9985 21.0351 24.1848H16.7336C16.1387 24.1848 15.6582 24.6668 15.6582 25.2602V41.3909H11.3566C10.7618 41.3909 10.2812 41.873 10.2812 42.4663V53.2202C10.2812 53.8136 10.7618 54.2956 11.3566 54.2956H22.1105C22.7053 54.2956 23.1859 53.8136 23.1859 53.2202V42.4673C23.1859 41.8739 22.7053 41.3919 22.1105 41.3919H17.8089V26.3366H21.0351C21.0351 27.5228 21.9996 28.4873 23.1859 28.4873H23.6323C23.882 29.3702 24.2368 30.22 24.6871 31.0265L24.3688 31.3447C23.5301 32.1835 23.5301 33.5479 24.3698 34.3856ZM39.317 52.146H30.7139V43.543H39.317V52.146ZM57.5985 52.146H48.9954V43.543H57.5985V52.146ZM21.0355 52.146H12.4324V43.543H21.0355V52.146ZM29.0082 9.13067L35.0154 3.12339L41.0227 9.13067H39.317C38.7222 9.13067 38.2416 9.61267 38.2416 10.2061V13.4322C38.2416 12.2459 37.2771 11.2814 36.0908 11.2814H33.9401C32.7538 11.2814 31.7893 12.2459 31.7893 13.4322V10.2061C31.7893 9.61267 31.3087 9.13067 30.7139 9.13067H29.0082ZM24.4777 26.3368H23.1862V24.186H24.4777C24.9894 24.186 25.4306 23.826 25.5314 23.3248C25.7768 22.115 26.2511 20.9718 26.9433 19.9287C27.2261 19.5028 27.168 18.9358 26.807 18.5739L25.8896 17.6579L27.41 16.1375L28.3274 17.0535C28.6908 17.415 29.2554 17.4717 29.6821 17.1889C30.7244 16.4985 31.8661 16.0242 33.0783 15.777C33.5799 15.6757 33.94 15.2345 33.94 14.7237V13.4323H36.0908V14.7237C36.0908 15.2355 36.4508 15.6752 36.952 15.7775C38.1638 16.0238 39.3058 16.4981 40.3482 17.1894C40.774 17.4721 41.341 17.415 41.7029 17.054L42.6203 16.1366L44.1407 17.657L43.2233 18.573C42.8618 18.9345 42.8037 19.501 43.087 19.9277C43.7797 20.9709 44.2536 22.114 44.4989 23.3238C44.6001 23.826 45.0413 24.186 45.5531 24.186H46.8446V26.3368H45.5531C45.0413 26.3368 44.6001 26.6969 44.4993 27.1981C44.254 28.4079 43.7797 29.551 43.0874 30.5942C42.8047 31.02 42.8628 31.587 43.2238 31.9489L44.1412 32.8649L42.6208 34.3853L41.7034 33.4693C41.3409 33.1078 40.7754 33.0522 40.3486 33.334C39.3064 34.0243 38.1647 34.4986 36.9525 34.7458C36.4508 34.8471 36.0908 35.2883 36.0908 35.7991V37.0906H33.94V35.7991C33.94 35.2874 33.5799 34.8476 33.0787 34.7454C31.867 34.4991 30.7249 34.0248 29.6826 33.3335C29.5007 33.213 29.2942 33.1539 29.0878 33.1539C28.8103 33.1539 28.5352 33.2615 28.3273 33.4679L27.4099 34.3853L25.8895 32.8649L26.8069 31.9489C27.1684 31.5874 27.2265 31.0209 26.9433 30.5942C26.2505 29.551 25.7767 28.4079 25.5314 27.1981C25.4306 26.6969 24.9894 26.3368 24.4777 26.3368Z" fill="#CBCBCB"/>
<path d="M35.0158 31.7137C38.5741 31.7137 41.4681 28.8197 41.4681 25.2614C41.4681 21.703 38.5741 18.8091 35.0158 18.8091C31.4574 18.8091 28.5635 21.703 28.5635 25.2614C28.5635 28.8197 31.4574 31.7137 35.0158 31.7137ZM35.0158 20.9599C37.3879 20.9599 39.3173 22.8893 39.3173 25.2614C39.3173 27.6335 37.3879 29.5629 35.0158 29.5629C32.6437 29.5629 30.7142 27.6335 30.7142 25.2614C30.7142 22.8893 32.6437 20.9599 35.0158 20.9599Z" fill="#CBCBCB"/>
<path d="M31.7896 45.6938V49.9953C31.7896 50.5887 32.2701 51.0707 32.8649 51.0707H37.1665C37.7613 51.0707 38.2419 50.5887 38.2419 49.9953V45.6938C38.2419 45.1004 37.7613 44.6184 37.1665 44.6184H32.8649C32.2701 44.6184 31.7896 45.1004 31.7896 45.6938ZM33.9403 46.7692H36.0911V48.9199H33.9403V46.7692Z" fill="#CBCBCB"/>
<path d="M50.0708 45.6938V49.9953C50.0708 50.5887 50.5514 51.0707 51.1462 51.0707H55.4477C56.0425 51.0707 56.5231 50.5887 56.5231 49.9953V45.6938C56.5231 45.1004 56.0425 44.6184 55.4477 44.6184H51.1462C50.5514 44.6184 50.0708 45.1004 50.0708 45.6938ZM52.2216 46.7692H54.3723V48.9199H52.2216V46.7692Z" fill="#CBCBCB"/>
<path d="M13.5078 45.6938V49.9953C13.5078 50.5887 13.9884 51.0707 14.5832 51.0707H18.8847C19.4795 51.0707 19.9601 50.5887 19.9601 49.9953V45.6938C19.9601 45.1004 19.4795 44.6184 18.8847 44.6184H14.5832C13.9884 44.6184 13.5078 45.1004 13.5078 45.6938ZM15.6586 46.7692H17.8093V48.9199H15.6586V46.7692Z" fill="#CBCBCB"/>
</svg>
