<svg width="65" height="67" viewBox="0 0 65 67" fill="none" xmlns="http://www.w3.org/2000/svg">
<path d="M21.4686 45.1105L18.6096 47.9429L15.6394 45.0009L18.4998 42.1677C18.0604 41.6595 17.6361 41.1429 17.2413 40.6108L14.0879 43.7342C13.7316 43.6015 13.3435 43.5746 12.9715 43.6555C12.5995 43.7364 12.2592 43.9222 11.9917 44.1907L1.66432 54.4206C0.680037 55.3662 0.0892423 56.6422 0.00749884 57.9983C-0.0603825 59.4574 0.497411 60.8771 1.5429 61.9075C2.52719 62.8575 3.84418 63.3945 5.21873 63.4055C6.59294 63.4161 7.91832 62.9004 8.91777 61.9658C8.93786 61.9464 8.95841 61.9265 8.9785 61.9066L19.4274 51.5559C19.6985 51.2914 19.886 50.9544 19.9678 50.586C20.0495 50.2176 20.0213 49.8337 19.8869 49.4807L23.0403 46.3569C22.5021 45.9642 21.9801 45.5453 21.4687 45.1105L21.4686 45.1105ZM7.5631 60.5043C6.85348 61.1961 5.86432 61.5304 4.87551 61.4136C3.88677 61.2964 3.0057 60.7405 2.48003 59.9023C2.10713 59.2553 1.96244 58.5035 2.06962 57.7657C2.17635 57.028 2.52871 56.3469 3.07042 55.8298L13.4062 45.5915L18.0119 50.154L7.5631 60.5043Z" fill="#CBCBCB"/>
<path d="M56.7111 7.2574C52.0192 2.61173 45.6558 0.00226828 39.0213 0.00317406C32.3868 0.00405861 26.0235 2.61479 21.3327 7.26182C16.6418 11.9084 14.0069 18.2104 14.0078 24.7809C14.0087 31.3518 16.6449 37.6533 21.3372 42.2988C26.029 46.9445 32.3924 49.554 39.0269 49.5535C45.6619 49.5526 52.0247 46.9419 56.7155 42.2949C61.4065 37.6483 64.0413 31.3463 64.0409 24.7758C64.04 18.2053 61.4038 11.9034 56.7115 7.25786L56.7111 7.2574ZM55.2963 40.8972V40.8977C50.9786 45.1665 45.1257 47.5633 39.0242 47.5602C32.9229 47.5576 27.0725 45.1556 22.7589 40.8826C18.4449 36.6093 16.0212 30.8146 16.0195 24.772C16.0182 18.7301 18.4396 12.9345 22.7514 8.65921C27.0681 4.38638 32.922 1.9865 39.0258 1.98786C45.1293 1.98919 50.982 4.39125 55.2967 8.66578C59.6114 12.9403 62.0362 18.7374 62.0357 24.782C62.0357 30.8262 59.6112 36.6229 55.2958 40.8983L55.2963 40.8972Z" fill="#CBCBCB"/>
<path d="M52.4661 11.4617C48.9005 7.93458 44.0666 5.95363 39.027 5.95532C33.9873 5.95665 29.1547 7.9407 25.5914 11.4706C22.0285 15 20.0269 19.7867 20.0269 24.7777C20.0269 29.7687 22.0285 34.5551 25.5914 38.0849C29.1547 41.6147 33.9873 43.5983 39.027 43.6001C44.0663 43.6014 48.9001 41.6209 52.4661 38.0932C56.0285 34.5599 58.0297 29.7709 58.0297 24.777C58.0297 19.7832 56.0285 14.9943 52.4661 11.4608V11.4617ZM51.0513 36.6924C47.8614 39.8486 43.5362 41.6207 39.0264 41.6195C34.5173 41.6182 30.1933 39.8429 27.0061 36.685C23.8184 33.5266 22.0271 29.244 22.0271 24.7784C22.0271 20.3127 23.8184 16.0301 27.0061 12.8718C30.1939 9.71344 34.5177 7.93866 39.0264 7.9373C43.5356 7.93553 47.8608 9.70778 51.0513 12.8639C54.2386 16.0258 56.029 20.3106 56.029 24.7784C56.029 29.2458 54.2386 33.5311 51.0513 36.6929V36.6924Z" fill="#CBCBCB"/>
<path d="M44.6036 18.4871C43.0951 17.1329 41.139 16.3704 39.103 16.3426C37.067 16.3151 35.0909 17.0241 33.5453 18.3368C31.9951 19.6888 31.0247 21.5764 30.8336 23.6136C30.5482 26.4804 29.2674 29.1606 27.2091 31.196L26.8098 31.5914V31.5919C26.4195 31.9789 26.4195 32.606 26.8098 32.993L30.7278 36.8767C31.1212 37.2579 31.75 37.2584 32.1435 36.8771L32.5432 36.4813C34.6632 34.4331 37.4236 33.1598 40.371 32.87C42.394 32.6383 44.2541 31.6595 45.5804 30.1288C46.9064 28.5984 47.6008 26.6286 47.5249 24.6131C47.4409 22.2611 46.3847 20.0461 44.6036 18.4871ZM43.7435 29.1775C42.7744 30.1412 41.5021 30.7493 40.1373 30.9015C36.8915 31.2297 33.8409 32.5901 31.4409 34.779L28.9281 32.2881L28.9276 32.2876C31.1401 29.9647 32.5111 26.9803 32.8259 23.8021C32.9693 22.2669 33.7003 20.8437 34.8686 19.8242C36.0547 18.8463 37.5562 18.3231 39.0996 18.35C40.643 18.3766 42.1248 18.952 43.2756 19.9701C44.6538 21.1594 45.4688 22.8636 45.5246 24.6729C45.5898 26.3545 44.9445 27.9869 43.7436 29.1775L43.7435 29.1775Z" fill="#CBCBCB"/>
<path d="M45.7344 33.4938C45.3436 33.1081 44.7113 33.109 44.3215 33.4955C43.9311 33.8817 43.9307 34.5079 44.3197 34.8949L45.32 35.886H45.3205C45.7139 36.2664 46.3418 36.2664 46.7353 35.886C46.9228 35.7003 47.0282 35.4482 47.0282 35.1854C47.0282 34.9227 46.9228 34.6706 46.7353 34.4844L45.7344 33.4938Z" fill="#CBCBCB"/>
<path d="M28.8105 19.5322C29.2044 19.9117 29.8314 19.9117 30.2253 19.5322C30.4129 19.346 30.5183 19.0939 30.5183 18.8312C30.5183 18.5685 30.4129 18.3164 30.2253 18.1306L29.225 17.1395C28.8337 16.7529 28.2005 16.7529 27.8102 17.1399C27.4194 17.5269 27.4194 18.1541 27.8102 18.5411L28.8105 19.5322Z" fill="#CBCBCB"/>
<path d="M49.2364 14.1666C49.0488 13.9808 48.7943 13.876 48.529 13.876C48.2633 13.876 48.0092 13.9808 47.8216 14.1666L46.8208 15.1577C46.6332 15.3435 46.5278 15.5956 46.5278 15.8583C46.5278 16.1214 46.6332 16.3731 46.8208 16.5593C47.216 16.9352 47.8408 16.9352 48.2356 16.5593L49.2359 15.5681H49.2364C49.424 15.3824 49.5294 15.1303 49.5294 14.8671C49.5294 14.6044 49.424 14.3523 49.2364 14.1666Z" fill="#CBCBCB"/>
<path d="M51.531 25.7698H50.5306C49.9777 25.7698 49.5298 26.2134 49.5298 26.7609C49.5298 27.308 49.9777 27.7521 50.5306 27.7521H51.531C52.0838 27.7521 52.5318 27.308 52.5318 26.7609C52.5318 26.2134 52.0838 25.7698 51.531 25.7698Z" fill="#CBCBCB"/>
<path d="M37.5223 14.3714C38.0752 14.3714 38.5231 13.9273 38.5231 13.3803V12.3891C38.5236 12.126 38.4186 11.8734 38.2306 11.6868C38.0431 11.5006 37.788 11.3958 37.5223 11.3958C37.2566 11.3958 37.0021 11.5006 36.814 11.6868C36.6265 11.8734 36.5215 12.126 36.522 12.3891V13.3803C36.522 13.9273 36.9699 14.3714 37.5223 14.3714Z" fill="#CBCBCB"/>
</svg>
