<svg width="64" height="61" viewBox="0 0 64 61" fill="none" xmlns="http://www.w3.org/2000/svg">
<path d="M50.7073 35.2949C50.2944 34.882 49.6751 34.6755 49.0554 34.8129L47.8854 33.6429C50.7761 29.2381 50.2945 23.1814 46.4399 19.2586C45.7514 18.5701 44.9943 17.9508 44.1687 17.4692L44.1692 8.17768C44.1692 7.76481 43.8941 7.48924 43.4807 7.48924H36.254C35.8411 6.04368 34.3956 4.94285 32.675 4.94285H30.7479C30.4037 2.67164 28.408 0.882324 26.0681 0.882324C23.7282 0.882324 21.6633 2.67164 21.3883 4.94285H19.4612C17.7406 4.94285 16.295 6.04416 15.8822 7.48924L8.24264 7.48972C7.82977 7.48972 7.5542 7.76481 7.5542 8.17816V55.1165C7.5542 55.5294 7.82929 55.805 8.24264 55.805H43.412C43.8249 55.805 44.1004 55.5299 44.1004 55.1165V37.2221C44.2382 37.1535 44.4447 37.0157 44.5825 36.947L45.7524 38.117C45.6146 38.6677 45.7524 39.287 46.2344 39.7689L58.0722 51.6067C58.6229 52.1574 59.38 52.5016 60.2057 52.5016C61.0313 52.5016 61.7198 52.2265 62.3391 51.6067L62.5456 51.4003C63.7155 50.2304 63.7155 48.3719 62.5456 47.202L50.7073 35.2949ZM45.4768 34.5378C41.5535 38.461 35.2218 38.461 31.2989 34.5378C27.3757 30.6145 27.3757 24.2828 31.2989 20.3599C33.226 18.4328 35.7037 17.4007 38.3878 17.4007C41.072 17.4007 43.6184 18.4329 45.4768 20.3599C49.3995 24.214 49.3995 30.6149 45.4768 34.5378ZM42.7926 16.8498C41.7604 16.437 40.7277 16.1614 39.6264 16.0241V8.7974H42.7926V16.8498ZM16.9834 8.24678C16.9834 7.2146 18.0156 6.31969 19.3233 6.31969L21.9388 6.31921C22.3516 6.31921 22.6272 6.04412 22.6272 5.63076C22.6272 3.77238 24.1413 2.25824 25.9997 2.25824C27.8581 2.25824 29.3723 3.77238 29.3723 5.63076C29.3723 6.04364 29.6473 6.31921 30.0607 6.31921H32.6071C33.9149 6.31921 34.947 7.21407 34.947 8.2463V11.7562L16.9838 11.7567L16.9834 8.24678ZM35.6348 13.1331C36.0477 13.1331 36.3233 12.858 36.3233 12.4446V8.86563H38.2504V16.0231C35.2912 16.0918 32.4692 17.2617 30.3358 19.3266C25.8624 23.8 25.8624 31.0267 30.3358 35.5004C32.4692 37.6338 35.2912 38.7351 38.1818 38.8038V42.8644H32.1251C31.7122 42.8644 31.4367 43.1394 31.4367 43.5528V49.6095L13.7488 49.61V8.86582H15.6758V12.4448C15.6758 12.8577 15.9509 13.1333 16.3643 13.1333L35.6348 13.1331ZM37.149 44.2418L32.8129 48.5779V44.2418H37.149ZM42.7929 54.4277H8.93116V8.86583H12.3037V50.2982C12.3037 50.7111 12.5788 50.9867 12.9921 50.9867H32.0565C32.1252 50.9867 32.263 50.9867 32.3316 50.918C32.4003 50.8494 32.4694 50.8494 32.5381 50.7802L39.2827 44.0355C39.3514 43.9669 39.3514 43.8978 39.4205 43.8291V43.7605C39.4205 43.6918 39.4205 43.6227 39.4892 43.554V43.4854V38.6678C40.5905 38.53 41.6918 38.2549 42.7239 37.842L42.7235 54.4275L42.7929 54.4277ZM46.4406 35.5009C46.647 35.2945 46.8534 35.0189 47.0599 34.8125L47.8856 35.6382L46.5088 36.8768L45.683 36.0511C46.0277 35.9138 46.2341 35.7074 46.4406 35.5009ZM61.582 50.367L61.3755 50.5735C60.7562 51.1928 59.7236 51.1928 59.1043 50.5735L47.2665 38.7357C47.1287 38.5979 47.1287 38.3228 47.2665 38.185L49.1936 36.2579C49.2622 36.1893 49.3314 36.1201 49.4687 36.1201C49.5373 36.1201 49.6751 36.1888 49.7438 36.2579L61.5816 48.0957C62.2014 48.7151 62.2014 49.7477 61.5821 50.367L61.582 50.367Z" fill="#CBCBCB"/>
<path d="M34.3958 28.4812C34.1207 28.7563 34.1207 29.1697 34.3958 29.4447L38.5255 33.7117C38.6633 33.8495 38.8697 33.9182 39.0075 33.9182C39.1453 33.9182 39.3517 33.8495 39.4895 33.7117C39.7646 33.4367 39.7646 33.0233 39.4895 32.7482L35.3598 28.4812C35.0837 28.2061 34.6709 28.2061 34.3958 28.4812Z" fill="#CBCBCB"/>
<path d="M34.6713 31.0279C34.3962 30.7528 33.9829 30.7528 33.7078 31.0279C33.4327 31.3029 33.4327 31.7163 33.7078 31.9914L35.7726 34.0562C35.9104 34.194 36.1169 34.2627 36.2546 34.2627C36.3924 34.2627 36.5989 34.194 36.7366 34.0562C37.0117 33.7811 37.0117 33.3678 36.7366 33.0927L34.6713 31.0279Z" fill="#CBCBCB"/>
<path d="M27.1006 5.63158C27.1006 6.23984 26.6075 6.73288 25.9993 6.73288C25.391 6.73288 24.8979 6.23984 24.8979 5.63158C24.8979 5.02332 25.391 4.53027 25.9993 4.53027C26.6075 4.53027 27.1006 5.02332 27.1006 5.63158Z" fill="#CBCBCB"/>
</svg>
