<svg width="66" height="65" viewBox="0 0 66 65" fill="none" xmlns="http://www.w3.org/2000/svg">
<path d="M45.4817 43.1383L48.4434 35.733C48.5639 35.4334 48.6253 35.1171 48.6253 34.7935C48.6253 33.3974 47.4899 32.262 46.0938 32.262H10.2927C8.89671 32.262 7.76123 33.3974 7.76123 34.7935C7.76123 35.1171 7.82268 35.4334 7.94175 35.7344L10.9034 43.1382C11.3969 44.3706 12.5727 45.1666 13.8996 45.1666H20.1585C21.389 45.1666 22.4941 44.4839 23.0438 43.3835L24.1192 41.2328C24.8955 39.6787 26.4568 38.7143 28.1936 38.7143C29.9305 38.7143 31.4918 39.6788 32.268 41.2328L33.3434 43.3835C33.8931 44.4839 34.9988 45.1666 36.2288 45.1666H42.4876C43.8146 45.1666 44.9903 44.3706 45.4824 43.1382L45.4817 43.1383ZM13.1378 36.5636H10.9871V34.4128H13.1378V36.5636ZM17.4394 36.5636H15.2886V34.4128H17.4394V36.5636ZM21.7409 36.5636H19.5901V34.4128H21.7409V36.5636ZM36.7963 36.5636H34.6455V34.4128H36.7963V36.5636ZM41.0978 36.5636H38.9471V34.4128H41.0978V36.5636ZM43.2486 34.4128H45.3994V36.5636H43.2486V34.4128Z" fill="#CBCBCB"/>
<path d="M61.5303 32.2615V4.30151H14.2134V25.851C17.6201 21.7957 22.6777 19.3569 28.1934 19.3569C30.3461 19.3569 32.4262 19.7386 34.3706 20.4323H36.0903C36.94 20.4323 37.7701 20.0881 38.3712 19.488L38.7682 19.0909C38.2041 18.2407 37.8719 17.2243 37.8719 16.1307C37.8719 15.0372 38.2041 14.0208 38.7677 13.17L38.3707 12.773C37.7706 12.1734 36.9395 11.8292 36.0898 11.8292H33.5703V9.6784H36.0898C37.5253 9.6784 38.8762 10.2377 39.8911 11.2526L40.2881 11.6497C41.1388 11.0861 42.1551 10.7538 43.2488 10.7538H44.3242V8.60306H42.1734V6.45229H44.3242C45.5105 6.45229 46.475 7.41678 46.475 8.60306V10.7538H48.6257V6.45229H50.7765V10.7538H52.9273V8.60306C52.9273 7.41678 53.8918 6.45229 55.078 6.45229H57.2288V8.60306H55.078V10.8624C57.5288 11.3626 59.3796 13.5335 59.3796 16.1308C59.3796 18.728 57.5288 20.8989 55.078 21.3991V23.6584H57.2288V25.8092H55.078C53.8918 25.8092 52.9273 24.8447 52.9273 23.6584V21.5077H50.7765V25.8092H48.6257V21.5077H46.475V23.6584C46.475 24.8447 45.5105 25.8092 44.3242 25.8092H42.1734V23.6584H44.3242V21.5077H43.2488C42.1552 21.5077 41.1389 21.1755 40.2881 20.6118L39.8911 21.0089C39.3501 21.5499 38.7115 21.9498 38.0188 22.2167C40.9569 24.0867 43.3463 26.7968 44.8432 30.1122L45.3996 30.1117H46.0942C47.7419 30.1117 49.1869 30.972 50.0213 32.2624H61.5304L61.5303 32.2615ZM27.118 17.2061H16.3641V15.0554H27.118V17.2061ZM31.4195 17.2061H29.2688V15.0554H31.4195V17.2061ZM31.4195 12.9046H16.3641V10.7538H31.4195V12.9046ZM31.4195 8.60305H16.3641V6.45228H31.4195V8.60305Z" fill="#CBCBCB"/>
<path d="M50.7761 43.0153V40.8645H48.708L47.8477 43.0153H50.7761Z" fill="#CBCBCB"/>
<path d="M35.1567 47.1977C33.5532 46.8751 32.1715 45.8501 31.4187 44.3446L30.3434 42.1938C29.9338 41.3748 29.11 40.865 28.1926 40.865C27.2751 40.865 26.4513 41.3748 26.0418 42.1943L24.9664 44.3451C24.2137 45.8506 22.832 46.8756 21.2275 47.1982C23.2353 48.6596 25.6731 49.4681 28.1926 49.4681C30.7135 49.4681 33.1489 48.6596 35.1567 47.1977Z" fill="#CBCBCB"/>
<path d="M13.488 48.4868L4.25784 57.7169C3.74271 58.2321 3.45898 58.9171 3.45898 59.645C3.45898 61.1486 4.68271 62.3723 6.18628 62.3723C6.91409 62.3723 7.59915 62.0886 8.11435 61.5734L17.3498 52.338C15.8893 51.2627 14.584 49.9697 13.488 48.4868Z" fill="#CBCBCB"/>
<path d="M43.2486 19.3568H43.6596L45.2726 16.1307L43.6596 12.9045H43.2486C41.4699 12.9045 40.0225 14.3519 40.0225 16.1307C40.0225 17.9094 41.4699 19.3568 43.2486 19.3568Z" fill="#CBCBCB"/>
<path d="M28.1933 51.6184C24.3906 51.6184 20.7592 50.0486 18.1298 47.3169H15.293C18.3189 51.3366 23.0992 53.7692 28.1927 53.7692C33.2825 53.7692 38.0646 51.3356 41.0911 47.3169H38.2563C35.626 50.0486 31.9974 51.6184 28.1938 51.6184H28.1933Z" fill="#CBCBCB"/>
<path d="M50.7763 34.7933C50.7763 35.391 50.6644 35.9763 50.4416 36.5321L49.5684 38.7141H62.6057C64.3844 38.7141 65.8318 37.2667 65.8318 35.488V34.4126H50.7371C50.7482 34.5408 50.776 34.6632 50.776 34.7933L50.7763 34.7933Z" fill="#CBCBCB"/>
<path d="M43.8028 47.1411C43.7673 47.2001 43.7298 47.2582 43.6934 47.3163H55.0781V45.1655H46.7784C46.0429 46.1497 44.9963 46.842 43.8028 47.1411Z" fill="#CBCBCB"/>
<path d="M19.0962 30.1109H37.2917C35.0636 27.4277 31.7362 25.8093 28.1942 25.8093C24.6512 25.8093 21.3243 27.4277 19.0962 30.1109Z" fill="#CBCBCB"/>
<path d="M62.6054 0H13.1378C11.359 0 9.91162 1.44741 9.91162 3.22615V30.1108H11.5429C11.7061 29.7493 11.8785 29.3954 12.0623 29.0493V4.30194C12.0623 3.11566 13.0268 2.15117 14.2131 2.15117H61.53C62.7163 2.15117 63.6808 3.11566 63.6808 4.30194V32.2619H65.8315V3.22656C65.8315 1.44781 64.3841 0.000405538 62.6054 0.000405538L62.6054 0Z" fill="#CBCBCB"/>
<path d="M54.0025 19.3568C55.4025 19.3568 56.5854 18.4548 57.0309 17.2061H47.1393L46.064 19.3568H54.0025Z" fill="#CBCBCB"/>
<path d="M16.4192 30.1106C18.9784 26.1178 23.4308 23.6583 28.1937 23.6583C32.9576 23.6583 37.4088 26.1178 39.9682 30.1106H42.4555C39.6811 24.8393 34.2504 21.5076 28.1941 21.5076C22.1364 21.5076 16.7066 24.8393 13.9326 30.1106H16.4192Z" fill="#CBCBCB"/>
<path d="M57.0306 15.0553C56.5855 13.8066 55.4026 12.9045 54.0021 12.9045H46.0635L47.1389 15.0553H57.0306Z" fill="#CBCBCB"/>
</svg>
