<svg width="66" height="67" viewBox="0 0 66 67" fill="none" xmlns="http://www.w3.org/2000/svg">
<path d="M39.1907 0.851336C37.8206 0.482632 36.4086 0.295405 34.99 0.293955C29.7196 0.288194 24.7781 2.85706 21.756 7.17494C18.7339 11.4928 18.0113 17.0151 19.8218 21.9648C21.6321 26.9144 25.7465 30.6677 30.8411 32.0173C34.9741 33.1253 39.3784 32.5459 43.0841 30.4062C46.7898 28.267 49.4936 24.7422 50.6002 20.6091C51.7068 16.4756 51.1259 12.0713 48.9852 8.36659C46.8551 4.65362 43.3279 1.94697 39.1906 0.850942L39.1907 0.851336ZM42.0059 28.5397C38.7946 30.3933 34.9789 30.8955 31.3976 29.9357C27.8161 28.9761 24.7629 26.6328 22.9093 23.422C21.0552 20.2107 20.553 16.395 21.5128 12.8137C22.4729 9.2322 24.8157 6.17897 28.027 4.32538C31.2378 2.47129 35.054 1.96912 38.6353 2.92885C42.2168 3.88902 45.27 6.23182 47.1236 9.4431C49.0007 12.6486 49.5159 16.4724 48.5543 20.0606C47.5927 23.6489 45.2345 26.7021 42.006 28.5398L42.0059 28.5397Z" fill="#CBCBCB"/>
<path d="M34.9949 4.60304C31.4995 4.60881 28.1859 6.16045 25.943 8.84116C23.6996 11.5224 22.7571 15.0577 23.3683 18.4995C23.979 21.9412 26.0808 24.9364 29.1092 26.6815C32.1381 28.4265 35.7833 28.7429 39.0675 27.5456C42.3513 26.3483 44.9375 23.7597 46.1323 20.475C47.3268 17.1899 47.0075 13.545 45.2595 10.5176C44.2254 8.71104 42.7305 7.21177 40.9268 6.17239C39.1236 5.1335 37.0766 4.59211 34.9949 4.60304ZM30.714 21.8092C30.714 22.0944 30.6007 22.368 30.3991 22.5696C30.1974 22.7713 29.9238 22.8846 29.6386 22.8846H26.4125C25.8186 22.8846 25.3371 22.403 25.3371 21.8092V17.5077C25.3371 16.9138 25.8186 16.4323 26.4125 16.4323H29.6386C29.9238 16.4323 30.1974 16.5456 30.3991 16.7472C30.6007 16.9488 30.714 17.2225 30.714 17.5077V21.8092ZM37.1663 21.8092C37.1663 22.0944 37.053 22.368 36.8514 22.5696C36.6497 22.7713 36.3761 22.8846 36.0909 22.8846H32.8648C32.2709 22.8846 31.7894 22.403 31.7894 21.8092V14.2815C31.7894 13.6876 32.2709 13.2061 32.8648 13.2061H36.0909C36.3761 13.2061 36.6497 13.3194 36.8514 13.521C37.053 13.7227 37.1663 13.9963 37.1663 14.2815V21.8092ZM43.6186 21.8092C43.6186 22.0944 43.5053 22.368 43.3037 22.5696C43.102 22.7713 42.8284 22.8846 42.5432 22.8846H39.3171C38.7232 22.8846 38.2417 22.403 38.2417 21.8092V11.0553C38.2417 10.4615 38.7232 9.97996 39.3171 9.97996H42.5432C42.8284 9.97996 43.1021 10.0933 43.3037 10.2949C43.5053 10.4965 43.6186 10.7702 43.6186 11.0553V21.8092Z" fill="#CBCBCB"/>
<path d="M45.0602 31.6807C44.7601 31.8775 44.4697 32.0839 44.1557 32.2659C43.8417 32.4478 43.5268 32.612 43.207 32.7724L45.9128 37.459L47.7755 36.3836L45.0602 31.6807Z" fill="#CBCBCB"/>
<path d="M40.3926 12.1309H41.468V20.7339H40.3926V12.1309Z" fill="#CBCBCB"/>
<path d="M33.9404 15.3569H35.0158V20.7339H33.9404V15.3569Z" fill="#CBCBCB"/>
<path d="M56.4311 53.524C57.1733 53.0967 57.7148 52.3915 57.9366 51.5648C58.1584 50.7376 58.0422 49.8562 57.614 49.1149V49.1096L50.7209 37.1729L49.792 37.7105L47.9293 38.7859L45.1333 40.399L52.0244 52.3497C52.4531 53.0895 53.1583 53.6286 53.9845 53.8489C54.8112 54.0693 55.6913 53.9522 56.4311 53.524Z" fill="#CBCBCB"/>
<path d="M11.3569 17.5078V47.6186H46.8127L42.7262 40.5402C42.429 40.026 42.6052 39.3683 43.1199 39.0712L44.0503 38.5335L41.2178 33.6255H41.2173C39.2393 34.3476 37.15 34.7177 35.0443 34.7201C33.437 34.7192 31.8364 34.5074 30.2839 34.0903C26.5729 33.1027 23.2694 30.9669 20.845 27.9885C18.421 25.0106 17.0005 21.3417 16.7868 17.5078L11.3569 17.5078ZM18.8846 45.4678H16.7339C16.14 45.4678 15.6585 44.9863 15.6585 44.3924C15.6585 43.7986 16.14 43.317 16.7339 43.317H18.8846C19.4785 43.317 19.96 43.7986 19.96 44.3924C19.96 44.9863 19.4785 45.4678 18.8846 45.4678ZM18.8846 41.1663H16.7339C16.14 41.1663 15.6585 40.6847 15.6585 40.0909C15.6585 39.497 16.14 39.0155 16.7339 39.0155H18.8846C19.4785 39.0155 19.96 39.497 19.96 40.0909C19.96 40.6847 19.4785 41.1663 18.8846 41.1663ZM23.1862 34.714H27.4877C28.0816 34.714 28.5631 35.1955 28.5631 35.7893C28.5631 36.3832 28.0816 36.8647 27.4877 36.8647H23.1862C22.5923 36.8647 22.1108 36.3832 22.1108 35.7893C22.1108 35.1955 22.5923 34.714 23.1862 34.714ZM23.1862 39.0155H39.3169C39.9108 39.0155 40.3923 39.497 40.3923 40.0909C40.3923 40.6847 39.9108 41.1663 39.3169 41.1663H23.1862C22.5923 41.1663 22.1108 40.6847 22.1108 40.0909C22.1108 39.497 22.5923 39.0155 23.1862 39.0155ZM23.1862 43.317H39.3169C39.9108 43.317 40.3923 43.7986 40.3923 44.3924C40.3923 44.9863 39.9108 45.4678 39.3169 45.4678H23.1862C22.5923 45.4678 22.1108 44.9863 22.1108 44.3924C22.1108 43.7986 22.5923 43.317 23.1862 43.317ZM19.96 35.7893C19.96 36.0745 19.8467 36.3482 19.6451 36.5498C19.4434 36.7514 19.1698 36.8647 18.8846 36.8647H16.7339C16.14 36.8647 15.6585 36.3832 15.6585 35.7893C15.6585 35.1955 16.14 34.714 16.7339 34.714H18.8846C19.1698 34.714 19.4434 34.8273 19.6451 35.0289C19.8467 35.2305 19.96 35.5042 19.96 35.7893Z" fill="#CBCBCB"/>
<path d="M27.4878 18.583H28.5632V20.7338H27.4878V18.583Z" fill="#CBCBCB"/>
<path d="M65.1262 54.0708H59.0181C58.0013 55.357 56.4526 56.1068 54.8131 56.1068C53.174 56.1068 51.6249 55.3569 50.6085 54.0708H41.4677V55.1462C41.4677 56.0017 41.1278 56.8227 40.5229 57.4275C39.918 58.0323 39.097 58.3723 38.2416 58.3723H31.7893C30.9338 58.3723 30.1128 58.0324 29.508 57.4275C28.9032 56.8226 28.5632 56.0016 28.5632 55.1462V54.0708H4.90479V57.297C4.90479 58.1525 5.24468 58.9734 5.84959 59.5782C6.45449 60.183 7.27549 60.523 8.13088 60.523H61.9001C62.7556 60.523 63.5766 60.1832 64.1814 59.5782C64.7862 58.9733 65.1262 58.1523 65.1262 57.297V54.0708Z" fill="#CBCBCB"/>
<path d="M31.7893 56.2216H38.2416C38.5267 56.2216 38.8004 56.1083 39.002 55.9066C39.2036 55.705 39.3169 55.4314 39.3169 55.1462V54.0708H30.7139V55.1462C30.7139 55.4314 30.8272 55.705 31.0288 55.9066C31.2304 56.1083 31.5041 56.2216 31.7893 56.2216Z" fill="#CBCBCB"/>
<path d="M59.7493 13.2063H52.9893C53.117 13.9173 53.2019 14.6355 53.2442 15.3571H59.7493C60.0345 15.3571 60.3081 15.4704 60.5098 15.672C60.7114 15.8736 60.8247 16.1473 60.8247 16.4325V48.694C60.8218 49.1592 60.517 49.5687 60.0719 49.705C60.214 50.4271 60.2064 51.1712 60.0484 51.8898C60.8463 51.8174 61.589 51.4491 62.1301 50.8582C62.6716 50.2672 62.9731 49.4952 62.9755 48.694V16.4325C62.9755 15.577 62.6356 14.756 62.0307 14.1512C61.4258 13.5464 60.6048 13.2064 59.7494 13.2064L59.7493 13.2063Z" fill="#CBCBCB"/>
<path d="M46.7993 30.3903L49.6414 35.3078L50.5728 34.7701C51.0869 34.4734 51.7446 34.6496 52.0418 35.1638L58.6746 46.6575V17.5078H53.2526C52.9526 22.5035 50.6203 27.1584 46.7993 30.3903Z" fill="#CBCBCB"/>
<path d="M49.2957 51.9201L48.0537 49.7694H10.2813C9.68748 49.7694 9.20596 49.2878 9.20596 48.694V16.4325C9.20596 15.8386 9.68748 15.3571 10.2813 15.3571H16.7787C16.8229 14.6355 16.9098 13.9173 17.038 13.2063H10.2813C9.42576 13.2063 8.60477 13.5462 7.99998 14.1511C7.39518 14.756 7.05518 15.577 7.05518 16.4324V48.6939C7.05518 49.5494 7.39507 50.3704 7.99998 50.9752C8.60488 51.58 9.42587 51.92 10.2813 51.92L49.2957 51.9201Z" fill="#CBCBCB"/>
</svg>
