<svg width="68" height="71" viewBox="0 0 68 71" fill="none" xmlns="http://www.w3.org/2000/svg">
<path d="M58.2436 22.6386V10.3682C58.2421 8.99942 57.6977 7.68782 56.7299 6.71997C55.7621 5.75213 54.4505 5.20767 53.0817 5.20632H39.3439C38.4831 5.20344 37.6414 5.45981 36.9291 5.94229C36.2167 6.42478 35.666 7.11081 35.3492 7.91117L34.9296 8.96686C34.799 9.2938 34.4822 9.50791 34.1303 9.50791H31.5743C30.6242 9.50791 29.8537 10.2784 29.8537 11.2285C29.8537 12.1786 30.6242 12.9491 31.5743 12.9491H34.1283C34.9891 12.952 35.8307 12.6957 36.5431 12.2132C37.2555 11.7307 37.8061 11.0447 38.123 10.2443L38.5454 9.18763C38.676 8.86166 38.9919 8.64754 39.3438 8.64754H53.0817C53.5382 8.64754 53.9756 8.82902 54.2982 9.15163C54.6208 9.47425 54.8023 9.9116 54.8023 10.3682V22.6386C53.6151 22.9478 52.5315 23.5685 51.664 24.436C50.7966 25.3035 50.1758 26.3871 49.8666 27.5743H39.3437C38.4829 27.5714 37.6413 27.8278 36.9289 28.3103C36.2165 28.7928 35.6659 29.4788 35.349 30.2791L34.9294 31.3348C34.7989 31.6618 34.482 31.8759 34.1301 31.8759H31.5741C30.624 31.8759 29.8535 32.6464 29.8535 33.5965C29.8535 34.5466 30.624 35.3171 31.5741 35.3171H34.1281C34.9889 35.32 35.8306 35.0636 36.5429 34.5811C37.2553 34.0987 37.8059 33.4126 38.1228 32.6123L38.5453 31.5556C38.6758 31.2296 38.9917 31.0155 39.3436 31.0155H49.8665C50.1757 32.2028 50.7965 33.2864 51.664 34.1538C52.5315 35.0212 53.615 35.642 54.8023 35.9512V48.2217C54.8023 48.6782 54.6208 49.1156 54.2982 49.4382C53.9755 49.7608 53.5382 49.9423 53.0816 49.9423H39.3438C38.483 49.9394 37.6413 50.1958 36.929 50.6782C36.2166 51.1607 35.6659 51.8468 35.3491 52.6471L34.9295 53.7028C34.7989 54.0298 34.4821 54.2439 34.1302 54.2439H31.5742C30.6241 54.2439 29.8536 55.0144 29.8536 55.9645C29.8536 56.9146 30.6241 57.6851 31.5742 57.6851H34.1282C34.989 57.688 35.8306 57.4316 36.543 56.9491C37.2554 56.4666 37.806 55.7806 38.1229 54.9803L38.5453 53.9236C38.6759 53.5976 38.9918 53.3835 39.3437 53.3835H53.0816C54.4503 53.3821 55.7619 52.8376 56.7298 51.8698C57.6976 50.902 58.2421 49.5904 58.2434 48.2216V35.9512C60.2267 35.4414 61.8791 34.0737 62.751 32.2209C63.6228 30.3678 63.6228 28.2228 62.751 26.3697C61.8791 24.5171 60.2267 23.1493 58.2434 22.6394L58.2436 22.6386ZM56.523 32.7362C55.6103 32.7362 54.7351 32.3737 54.0894 31.7285C53.4442 31.0828 53.0817 30.2076 53.0817 29.2949C53.0817 28.3822 53.4442 27.5071 54.0894 26.8613C54.7351 26.2161 55.6103 25.8536 56.523 25.8536C57.4356 25.8536 58.3108 26.2161 58.9565 26.8613C59.6018 27.507 59.9642 28.3822 59.9642 29.2949C59.9642 30.2076 59.6018 31.0827 58.9565 31.7285C58.3108 32.3737 57.4356 32.7362 56.523 32.7362Z" fill="#CBCBCB"/>
<path d="M34.6809 50.6785L35.1034 49.6219C35.234 49.2954 35.5508 49.0813 35.9028 49.0818H38.4568C39.4068 49.0818 40.1774 48.3113 40.1774 47.3612C40.1774 46.4111 39.4068 45.6406 38.4568 45.6406H35.9028C35.042 45.6377 34.2003 45.8941 33.488 46.3765C32.7755 46.859 32.2249 47.5451 31.9081 48.3454L31.4885 49.4011C31.3579 49.728 31.0411 49.9422 30.6892 49.9422H16.9488C15.9987 49.9422 15.2282 49.1716 15.2282 48.2215V35.9511C16.4155 35.6419 17.4991 35.0212 18.3665 34.1537C19.2339 33.2862 19.8547 32.2026 20.1639 31.0154H30.6868C31.5476 31.0183 32.3893 30.7619 33.1016 30.2794C33.814 29.7969 34.3646 29.1109 34.6815 28.3105L35.104 27.2539C35.2345 26.9279 35.5504 26.7138 35.9023 26.7138H38.4563C39.4064 26.7138 40.177 25.9433 40.177 24.9932C40.177 24.0431 39.4064 23.2726 38.4563 23.2726H35.9023C35.0415 23.2697 34.1999 23.526 33.4876 24.0085C32.7751 24.491 32.2245 25.1771 31.9077 25.9774L31.4881 27.0331C31.3575 27.36 31.0406 27.5742 30.6887 27.5742H20.1639C19.8547 26.3869 19.234 25.3033 18.3664 24.4359C17.4989 23.5684 16.4154 22.9477 15.2282 22.6384V10.368C15.2282 9.41792 15.9987 8.64739 16.9488 8.64739H30.6867C31.5474 8.65027 32.3891 8.39391 33.1014 7.91142C33.8139 7.42894 34.3645 6.7429 34.6813 5.94255L35.1038 4.88588C35.2344 4.55991 35.5503 4.34579 35.9022 4.34579H38.4562C39.4062 4.34579 40.1768 3.57527 40.1768 2.62518C40.1768 1.67509 39.4062 0.904565 38.4562 0.904565H35.9022C35.0414 0.901684 34.1997 1.15805 33.4874 1.64053C32.775 2.12302 32.2243 2.80905 31.9075 3.60941L31.4879 4.6651C31.3573 4.99204 31.0405 5.20615 30.6886 5.20615H16.9482C15.5795 5.20759 14.2679 5.752 13.3 6.7198C12.3322 7.6876 11.7877 8.99924 11.7864 10.368V22.6384C9.80314 23.1483 8.15074 24.516 7.27888 26.3687C6.40704 28.2218 6.40704 30.3668 7.27888 32.2199C8.15071 34.0725 9.80314 35.4403 11.7864 35.9502V48.2216C11.7878 49.5904 12.3322 50.902 13.3 51.8698C14.2678 52.8377 15.5795 53.3821 16.9482 53.3835H30.6861C31.5469 53.3864 32.3881 53.1295 33.1005 52.647C33.813 52.1645 34.3631 51.4785 34.68 50.6786L34.6809 50.6785ZM10.0663 29.295C10.0663 28.3824 10.4288 27.5072 11.074 26.8614C11.7197 26.2162 12.5949 25.8537 13.5076 25.8537C14.4202 25.8537 15.2954 26.2162 15.9411 26.8614C16.5864 27.5071 16.9488 28.3823 16.9488 29.295C16.9488 30.2077 16.5864 31.0828 15.9411 31.7286C15.2954 32.3738 14.4202 32.7363 13.5076 32.7363C12.5949 32.7363 11.7197 32.3738 11.074 31.7286C10.4288 31.0829 10.0663 30.2077 10.0663 29.295Z" fill="#CBCBCB"/>
</svg>
